<mxfile host="app.diagrams.net" modified="2024-05-29T16:31:51.276Z" agent="Mozilla/5.0 (Windows NT 10.0; Win64; x64) AppleWebKit/537.36 (KHTML, like Gecko) Chrome/125.0.0.0 Safari/537.36" etag="14OSZFNQ6KH44FNdJ_CE" version="24.4.9" type="google">
  <diagram name="Page-1" id="kfzCvOzsboDyDjGVZ6II">
    <mxGraphModel dx="3833" dy="2580" grid="1" gridSize="10" guides="1" tooltips="1" connect="1" arrows="1" fold="1" page="1" pageScale="1" pageWidth="850" pageHeight="1100" math="0" shadow="0">
      <root>
        <mxCell id="0" />
        <mxCell id="1" parent="0" />
        <mxCell id="VlDvHuUCodRuiSwmcWlM-1" value="Client" style="swimlane;fontStyle=0;childLayout=stackLayout;horizontal=1;startSize=26;fillColor=none;horizontalStack=0;resizeParent=1;resizeParentMax=0;resizeLast=0;collapsible=1;marginBottom=0;whiteSpace=wrap;html=1;" parent="1" vertex="1">
          <mxGeometry x="267.5" y="570" width="260" height="114" as="geometry">
            <mxRectangle x="330" y="610" width="70" height="30" as="alternateBounds" />
          </mxGeometry>
        </mxCell>
        <mxCell id="VlDvHuUCodRuiSwmcWlM-2" value="&lt;u&gt;id_client&lt;span style=&quot;white-space: pre;&quot;&gt;&#x9;&lt;/span&gt;&lt;span style=&quot;white-space: pre;&quot;&gt;&#x9;&lt;span style=&quot;white-space: pre;&quot;&gt;&#x9;&lt;/span&gt;&lt;/span&gt;INT&lt;span style=&quot;white-space: pre;&quot;&gt;&#x9;&lt;span style=&quot;white-space: pre;&quot;&gt;&#x9;&lt;/span&gt;&lt;span style=&quot;white-space: pre;&quot;&gt;&#x9;&lt;span style=&quot;white-space: pre;&quot;&gt;&#x9;&lt;/span&gt;&lt;/span&gt;&lt;/span&gt;&amp;lt;pk&amp;gt;&lt;/u&gt;&lt;div&gt;&lt;u&gt;&lt;br&gt;&lt;/u&gt;&lt;/div&gt;&lt;div&gt;&lt;u&gt;id_humain&amp;nbsp;&lt;span style=&quot;white-space: pre;&quot;&gt;&#x9;&lt;/span&gt;&lt;span style=&quot;white-space: pre;&quot;&gt;&#x9;&lt;/span&gt;INT&lt;span style=&quot;white-space: pre;&quot;&gt;&#x9;&lt;/span&gt;&lt;span style=&quot;white-space: pre;&quot;&gt;&#x9;&lt;/span&gt;&lt;span style=&quot;white-space: pre;&quot;&gt;&#x9;&lt;/span&gt;&lt;span style=&quot;white-space: pre;&quot;&gt;&#x9;&lt;/span&gt;&amp;lt;fk&amp;gt;&lt;/u&gt;&lt;/div&gt;" style="text;strokeColor=none;fillColor=none;align=left;verticalAlign=top;spacingLeft=4;spacingRight=4;overflow=hidden;rotatable=0;points=[[0,0.5],[1,0.5]];portConstraint=eastwest;whiteSpace=wrap;html=1;" parent="VlDvHuUCodRuiSwmcWlM-1" vertex="1">
          <mxGeometry y="26" width="260" height="54" as="geometry" />
        </mxCell>
        <mxCell id="VlDvHuUCodRuiSwmcWlM-4" value="adresse&lt;span style=&quot;white-space: pre;&quot;&gt;&#x9;&lt;span style=&quot;white-space: pre;&quot;&gt;&#x9;&lt;span style=&quot;white-space: pre;&quot;&gt;&#x9;&lt;/span&gt;&lt;/span&gt;VARCHAR(&lt;/span&gt;50&lt;span style=&quot;white-space: pre;&quot;&gt;)&lt;/span&gt;&lt;div&gt;&lt;div&gt;&lt;br&gt;&lt;/div&gt;&lt;/div&gt;" style="text;strokeColor=none;fillColor=none;align=left;verticalAlign=top;spacingLeft=4;spacingRight=4;overflow=hidden;rotatable=0;points=[[0,0.5],[1,0.5]];portConstraint=eastwest;whiteSpace=wrap;html=1;" parent="VlDvHuUCodRuiSwmcWlM-1" vertex="1">
          <mxGeometry y="80" width="260" height="34" as="geometry" />
        </mxCell>
        <mxCell id="VlDvHuUCodRuiSwmcWlM-8" value="Commande_client" style="swimlane;fontStyle=0;childLayout=stackLayout;horizontal=1;startSize=26;fillColor=none;horizontalStack=0;resizeParent=1;resizeParentMax=0;resizeLast=0;collapsible=1;marginBottom=0;whiteSpace=wrap;html=1;" parent="1" vertex="1">
          <mxGeometry x="660" y="330" width="210" height="140" as="geometry" />
        </mxCell>
        <mxCell id="VlDvHuUCodRuiSwmcWlM-9" value="&lt;u&gt;id_commande&lt;span style=&quot;white-space: pre;&quot;&gt;&#x9;&lt;span style=&quot;white-space: pre;&quot;&gt;&#x9;&lt;/span&gt;&lt;/span&gt;INT&lt;span style=&quot;white-space: pre;&quot;&gt;&#x9;&lt;/span&gt;&lt;span style=&quot;white-space: pre;&quot;&gt;&#x9;&lt;/span&gt;&amp;lt;pk&amp;gt;&lt;/u&gt;&lt;div&gt;&lt;u&gt;&lt;br&gt;&lt;/u&gt;&lt;/div&gt;&lt;div&gt;&lt;u&gt;id_client&amp;nbsp;&lt;span style=&quot;white-space: pre;&quot;&gt;&#x9;&lt;/span&gt;&lt;span style=&quot;white-space: pre;&quot;&gt;&#x9;&lt;/span&gt;&lt;span style=&quot;white-space: pre;&quot;&gt;&#x9;&lt;/span&gt;INT&amp;nbsp;&lt;span style=&quot;white-space: pre;&quot;&gt;&#x9;&lt;/span&gt;&lt;span style=&quot;white-space: pre;&quot;&gt;&#x9;&lt;/span&gt;&amp;lt;fk&amp;gt;&lt;/u&gt;&lt;/div&gt;" style="text;strokeColor=none;fillColor=none;align=left;verticalAlign=top;spacingLeft=4;spacingRight=4;overflow=hidden;rotatable=0;points=[[0,0.5],[1,0.5]];portConstraint=eastwest;whiteSpace=wrap;html=1;" parent="VlDvHuUCodRuiSwmcWlM-8" vertex="1">
          <mxGeometry y="26" width="210" height="54" as="geometry" />
        </mxCell>
        <mxCell id="VlDvHuUCodRuiSwmcWlM-10" value="adresse_client&lt;span style=&quot;white-space: pre;&quot;&gt;&#x9;&lt;/span&gt;&lt;span style=&quot;white-space: pre;&quot;&gt;&#x9;&lt;/span&gt;VARCHAR(50)&lt;div&gt;&lt;br&gt;&lt;/div&gt;&lt;div&gt;date_commande&lt;span style=&quot;white-space: pre;&quot;&gt;&#x9;&lt;/span&gt;DATE&lt;/div&gt;" style="text;strokeColor=none;fillColor=none;align=left;verticalAlign=top;spacingLeft=4;spacingRight=4;overflow=hidden;rotatable=0;points=[[0,0.5],[1,0.5]];portConstraint=eastwest;whiteSpace=wrap;html=1;" parent="VlDvHuUCodRuiSwmcWlM-8" vertex="1">
          <mxGeometry y="80" width="210" height="60" as="geometry" />
        </mxCell>
        <mxCell id="VlDvHuUCodRuiSwmcWlM-16" value="FK_CLIENT_COMMANDES_CLIENT" style="text;html=1;align=center;verticalAlign=middle;whiteSpace=wrap;rounded=0;" parent="1" vertex="1">
          <mxGeometry x="735" y="512" width="60" height="30" as="geometry" />
        </mxCell>
        <mxCell id="XZ_G6GVMaPYYm9yExuBG-6" style="edgeStyle=orthogonalEdgeStyle;rounded=0;orthogonalLoop=1;jettySize=auto;html=1;entryX=0.5;entryY=1;entryDx=0;entryDy=0;endArrow=none;endFill=0;" parent="1" source="VlDvHuUCodRuiSwmcWlM-18" target="XZ_G6GVMaPYYm9yExuBG-5" edge="1">
          <mxGeometry relative="1" as="geometry" />
        </mxCell>
        <mxCell id="VlDvHuUCodRuiSwmcWlM-18" value="Vaccin" style="swimlane;fontStyle=0;childLayout=stackLayout;horizontal=1;startSize=26;fillColor=none;horizontalStack=0;resizeParent=1;resizeParentMax=0;resizeLast=0;collapsible=1;marginBottom=0;whiteSpace=wrap;html=1;" parent="1" vertex="1">
          <mxGeometry x="290" y="790" width="190" height="186" as="geometry" />
        </mxCell>
        <mxCell id="VlDvHuUCodRuiSwmcWlM-19" value="&lt;u&gt;id_vaccin&lt;span style=&quot;white-space: pre;&quot;&gt;&#x9;&lt;/span&gt;&lt;span style=&quot;white-space: pre;&quot;&gt;&#x9;&lt;/span&gt;INT&lt;span style=&quot;white-space: pre;&quot;&gt;&#x9;&lt;/span&gt;&lt;span style=&quot;white-space: pre;&quot;&gt;&#x9;&lt;/span&gt;&amp;lt;pk&amp;gt;&lt;/u&gt;&lt;div&gt;&lt;u&gt;&lt;br&gt;&lt;/u&gt;&lt;/div&gt;&lt;div&gt;&lt;u&gt;id_client&amp;nbsp;&lt;span style=&quot;white-space: pre;&quot;&gt;&#x9;&lt;/span&gt;&lt;span style=&quot;white-space: pre;&quot;&gt;&#x9;&lt;/span&gt;INT&amp;nbsp;&lt;span style=&quot;white-space: pre;&quot;&gt;&#x9;&lt;/span&gt;&lt;span style=&quot;white-space: pre;&quot;&gt;&#x9;&lt;/span&gt;&amp;lt;fk&amp;gt;&lt;/u&gt;&lt;/div&gt;&lt;div&gt;&lt;u&gt;&lt;br&gt;&lt;/u&gt;&lt;/div&gt;" style="text;strokeColor=none;fillColor=none;align=left;verticalAlign=top;spacingLeft=4;spacingRight=4;overflow=hidden;rotatable=0;points=[[0,0.5],[1,0.5]];portConstraint=eastwest;whiteSpace=wrap;html=1;" parent="VlDvHuUCodRuiSwmcWlM-18" vertex="1">
          <mxGeometry y="26" width="190" height="52" as="geometry" />
        </mxCell>
        <mxCell id="VlDvHuUCodRuiSwmcWlM-20" value="nom&lt;span style=&quot;white-space: pre;&quot;&gt;&#x9;&lt;/span&gt;&lt;span style=&quot;white-space: pre;&quot;&gt;&#x9;&lt;/span&gt;&lt;span style=&quot;white-space: pre;&quot;&gt;&#x9;&lt;/span&gt;VARCHAR(50)" style="text;strokeColor=none;fillColor=none;align=left;verticalAlign=top;spacingLeft=4;spacingRight=4;overflow=hidden;rotatable=0;points=[[0,0.5],[1,0.5]];portConstraint=eastwest;whiteSpace=wrap;html=1;" parent="VlDvHuUCodRuiSwmcWlM-18" vertex="1">
          <mxGeometry y="78" width="190" height="26" as="geometry" />
        </mxCell>
        <mxCell id="VlDvHuUCodRuiSwmcWlM-21" value="prix&lt;span style=&quot;white-space: pre;&quot;&gt;&#x9;&lt;/span&gt;&lt;span style=&quot;white-space: pre;&quot;&gt;&#x9;&lt;/span&gt;&lt;span style=&quot;white-space: pre;&quot;&gt;&#x9;&lt;/span&gt;INT&lt;div&gt;&lt;br&gt;&lt;/div&gt;&lt;div&gt;type&lt;span style=&quot;white-space: pre;&quot;&gt;&#x9;&lt;/span&gt;&lt;span style=&quot;white-space: pre;&quot;&gt;&#x9;&lt;/span&gt;&lt;span style=&quot;white-space: pre;&quot;&gt;&#x9;&lt;/span&gt;VARCHAR(50)&lt;/div&gt;&lt;div&gt;&lt;br&gt;&lt;/div&gt;&lt;div&gt;dosage&lt;span style=&quot;white-space: pre;&quot;&gt;&#x9;&lt;/span&gt;&lt;span style=&quot;white-space: pre;&quot;&gt;&#x9;&lt;/span&gt;FLOAT&lt;/div&gt;" style="text;strokeColor=none;fillColor=none;align=left;verticalAlign=top;spacingLeft=4;spacingRight=4;overflow=hidden;rotatable=0;points=[[0,0.5],[1,0.5]];portConstraint=eastwest;whiteSpace=wrap;html=1;" parent="VlDvHuUCodRuiSwmcWlM-18" vertex="1">
          <mxGeometry y="104" width="190" height="82" as="geometry" />
        </mxCell>
        <mxCell id="VlDvHuUCodRuiSwmcWlM-36" value="" style="edgeStyle=orthogonalEdgeStyle;rounded=0;orthogonalLoop=1;jettySize=auto;html=1;exitX=0.5;exitY=0;exitDx=0;exitDy=0;" parent="1" source="SpktXiOs0V0HbwqX7Kb5-1" target="VlDvHuUCodRuiSwmcWlM-21" edge="1">
          <mxGeometry relative="1" as="geometry">
            <Array as="points">
              <mxPoint x="385" y="996" />
            </Array>
          </mxGeometry>
        </mxCell>
        <mxCell id="VlDvHuUCodRuiSwmcWlM-32" value="Composant" style="swimlane;fontStyle=0;childLayout=stackLayout;horizontal=1;startSize=26;fillColor=none;horizontalStack=0;resizeParent=1;resizeParentMax=0;resizeLast=0;collapsible=1;marginBottom=0;whiteSpace=wrap;html=1;" parent="1" vertex="1">
          <mxGeometry x="270" y="1046" width="230" height="120" as="geometry" />
        </mxCell>
        <mxCell id="VlDvHuUCodRuiSwmcWlM-33" value="&lt;u&gt;id_composant&amp;nbsp;&lt;span style=&quot;white-space: pre;&quot;&gt;&#x9;&lt;span style=&quot;white-space: pre;&quot;&gt;&#x9;&lt;/span&gt;&lt;/span&gt;INT&lt;span style=&quot;white-space: pre;&quot;&gt;&#x9;&lt;/span&gt;&lt;span style=&quot;white-space: pre;&quot;&gt;&#x9;&lt;/span&gt;&amp;lt;pk&amp;gt;&lt;/u&gt;&lt;div&gt;&lt;u&gt;&lt;br&gt;&lt;/u&gt;&lt;/div&gt;&lt;div&gt;&lt;u&gt;id_vaccin&lt;span style=&quot;white-space: pre;&quot;&gt;&#x9;&lt;/span&gt;&lt;span style=&quot;white-space: pre;&quot;&gt;&#x9;&lt;/span&gt;&lt;span style=&quot;white-space: pre;&quot;&gt;&#x9;&lt;/span&gt;INT&lt;span style=&quot;white-space: pre;&quot;&gt;&#x9;&lt;/span&gt;&lt;span style=&quot;white-space: pre;&quot;&gt;&#x9;&lt;/span&gt;&amp;lt;fk&amp;gt;&lt;/u&gt;&lt;/div&gt;&lt;div&gt;&lt;div&gt;&lt;br&gt;&lt;/div&gt;&lt;/div&gt;&lt;div&gt;&lt;br&gt;&lt;/div&gt;" style="text;strokeColor=none;fillColor=none;align=left;verticalAlign=top;spacingLeft=4;spacingRight=4;overflow=hidden;rotatable=0;points=[[0,0.5],[1,0.5]];portConstraint=eastwest;whiteSpace=wrap;html=1;" parent="VlDvHuUCodRuiSwmcWlM-32" vertex="1">
          <mxGeometry y="26" width="230" height="64" as="geometry" />
        </mxCell>
        <mxCell id="VlDvHuUCodRuiSwmcWlM-34" value="&lt;div&gt;&lt;span style=&quot;background-color: initial;&quot;&gt;formule&lt;/span&gt;&lt;span style=&quot;background-color: initial; white-space: pre;&quot;&gt;&#x9;&lt;/span&gt;&lt;span style=&quot;background-color: initial; white-space: pre;&quot;&gt;&#x9;&lt;/span&gt;&lt;span style=&quot;background-color: initial; white-space: pre;&quot;&gt;&#x9;&lt;/span&gt;&lt;span style=&quot;background-color: initial;&quot;&gt;VARCHAR(50)&lt;/span&gt;&lt;br&gt;&lt;/div&gt;&lt;div&gt;&lt;div&gt;&lt;br&gt;&lt;/div&gt;&lt;/div&gt;&lt;div&gt;&lt;/div&gt;" style="text;strokeColor=none;fillColor=none;align=left;verticalAlign=top;spacingLeft=4;spacingRight=4;overflow=hidden;rotatable=0;points=[[0,0.5],[1,0.5]];portConstraint=eastwest;whiteSpace=wrap;html=1;" parent="VlDvHuUCodRuiSwmcWlM-32" vertex="1">
          <mxGeometry y="90" width="230" height="30" as="geometry" />
        </mxCell>
        <mxCell id="SpktXiOs0V0HbwqX7Kb5-1" value="FK_COMPOSANT_VACCIN" style="text;html=1;align=center;verticalAlign=middle;whiteSpace=wrap;rounded=0;" parent="1" vertex="1">
          <mxGeometry x="355" y="996" width="60" height="30" as="geometry" />
        </mxCell>
        <mxCell id="SpktXiOs0V0HbwqX7Kb5-2" value="" style="endArrow=none;html=1;rounded=0;entryX=0.5;entryY=1;entryDx=0;entryDy=0;exitX=0.5;exitY=0;exitDx=0;exitDy=0;" parent="1" source="VlDvHuUCodRuiSwmcWlM-32" target="SpktXiOs0V0HbwqX7Kb5-1" edge="1">
          <mxGeometry width="50" height="50" relative="1" as="geometry">
            <mxPoint x="380" y="1036" as="sourcePoint" />
            <mxPoint x="430" y="986" as="targetPoint" />
          </mxGeometry>
        </mxCell>
        <mxCell id="8PMVEyefa--tEmkuhfMg-2" style="edgeStyle=orthogonalEdgeStyle;rounded=0;orthogonalLoop=1;jettySize=auto;html=1;entryX=1;entryY=0.5;entryDx=0;entryDy=0;" parent="1" target="VlDvHuUCodRuiSwmcWlM-33" edge="1">
          <mxGeometry relative="1" as="geometry">
            <mxPoint x="590" y="1221" as="targetPoint" />
            <mxPoint x="740" y="1100" as="sourcePoint" />
            <Array as="points">
              <mxPoint x="750" y="1100" />
              <mxPoint x="750" y="1101" />
              <mxPoint x="620" y="1101" />
              <mxPoint x="620" y="1104" />
            </Array>
          </mxGeometry>
        </mxCell>
        <mxCell id="nGqbty3hTxU6O8-Om40M-42" style="edgeStyle=orthogonalEdgeStyle;rounded=0;orthogonalLoop=1;jettySize=auto;html=1;entryX=0;entryY=0.5;entryDx=0;entryDy=0;" parent="1" source="SpktXiOs0V0HbwqX7Kb5-3" target="SpktXiOs0V0HbwqX7Kb5-50" edge="1">
          <mxGeometry relative="1" as="geometry" />
        </mxCell>
        <mxCell id="SpktXiOs0V0HbwqX7Kb5-3" value="Stock" style="swimlane;fontStyle=0;childLayout=stackLayout;horizontal=1;startSize=26;fillColor=none;horizontalStack=0;resizeParent=1;resizeParentMax=0;resizeLast=0;collapsible=1;marginBottom=0;whiteSpace=wrap;html=1;" parent="1" vertex="1">
          <mxGeometry x="750" y="1024" width="200" height="130" as="geometry" />
        </mxCell>
        <mxCell id="SpktXiOs0V0HbwqX7Kb5-4" value="&lt;u&gt;id_stock&lt;span style=&quot;white-space: pre;&quot;&gt;&#x9;&lt;/span&gt;&lt;span style=&quot;white-space: pre;&quot;&gt;&#x9;&lt;/span&gt;INT&amp;nbsp;&lt;span style=&quot;white-space: pre;&quot;&gt;&#x9;&lt;/span&gt;&lt;span style=&quot;white-space: pre;&quot;&gt;&#x9;&lt;span style=&quot;white-space: pre;&quot;&gt;&#x9;&lt;/span&gt;&lt;/span&gt;&amp;lt;pk&amp;gt;&lt;/u&gt;" style="text;strokeColor=none;fillColor=none;align=left;verticalAlign=top;spacingLeft=4;spacingRight=4;overflow=hidden;rotatable=0;points=[[0,0.5],[1,0.5]];portConstraint=eastwest;whiteSpace=wrap;html=1;" parent="SpktXiOs0V0HbwqX7Kb5-3" vertex="1">
          <mxGeometry y="26" width="200" height="24" as="geometry" />
        </mxCell>
        <mxCell id="SpktXiOs0V0HbwqX7Kb5-5" value="&lt;div&gt;&lt;u&gt;id_composant &lt;span style=&quot;white-space: pre;&quot;&gt;&#x9;&lt;/span&gt;INT&lt;span style=&quot;white-space: pre;&quot;&gt;&#x9;&lt;/span&gt;&lt;span style=&quot;white-space: pre;&quot;&gt;&#x9;&lt;/span&gt;&lt;span style=&quot;white-space: pre;&quot;&gt;&#x9;&lt;/span&gt;&amp;lt;fk&amp;gt;&lt;/u&gt;&lt;/div&gt;&lt;div&gt;&lt;u&gt;&lt;br&gt;&lt;/u&gt;&lt;/div&gt;&lt;div&gt;&lt;u&gt;id_batiment&lt;span style=&quot;white-space: pre;&quot;&gt;&#x9;&lt;/span&gt;INT&lt;span style=&quot;white-space: pre;&quot;&gt;&#x9;&lt;/span&gt;&lt;span style=&quot;white-space: pre;&quot;&gt;&#x9;&lt;/span&gt;&lt;span style=&quot;white-space: pre;&quot;&gt;&#x9;&lt;/span&gt;&amp;lt;fk&amp;gt;&lt;/u&gt;&lt;/div&gt;&lt;div&gt;&lt;br&gt;&lt;/div&gt;stock&lt;span style=&quot;white-space: pre;&quot;&gt;&#x9;&lt;/span&gt;&lt;span style=&quot;white-space: pre;&quot;&gt;&#x9;&lt;/span&gt;VARCHAR(20)&lt;div&gt;&lt;br&gt;&lt;/div&gt;&lt;div&gt;&lt;br&gt;&lt;/div&gt;" style="text;strokeColor=none;fillColor=none;align=left;verticalAlign=top;spacingLeft=4;spacingRight=4;overflow=hidden;rotatable=0;points=[[0,0.5],[1,0.5]];portConstraint=eastwest;whiteSpace=wrap;html=1;" parent="SpktXiOs0V0HbwqX7Kb5-3" vertex="1">
          <mxGeometry y="50" width="200" height="80" as="geometry" />
        </mxCell>
        <mxCell id="SpktXiOs0V0HbwqX7Kb5-7" value="Employe" style="swimlane;fontStyle=0;childLayout=stackLayout;horizontal=1;startSize=26;fillColor=none;horizontalStack=0;resizeParent=1;resizeParentMax=0;resizeLast=0;collapsible=1;marginBottom=0;whiteSpace=wrap;html=1;" parent="1" vertex="1">
          <mxGeometry x="300" y="144" width="195" height="120" as="geometry" />
        </mxCell>
        <mxCell id="SpktXiOs0V0HbwqX7Kb5-8" value="&lt;div&gt;&lt;u&gt;id_employé&lt;span style=&quot;white-space: pre;&quot;&gt;&#x9;&lt;/span&gt;INT&amp;nbsp;&lt;span style=&quot;white-space: pre;&quot;&gt;&#x9;&lt;/span&gt;&lt;span style=&quot;white-space: pre;&quot;&gt;&#x9;&lt;/span&gt;&amp;lt;pk&amp;gt;&lt;/u&gt;&lt;div&gt;&lt;u&gt;&lt;br&gt;&lt;/u&gt;&lt;/div&gt;&lt;div&gt;&lt;u&gt;id_humain&lt;span style=&quot;white-space: pre;&quot;&gt;&#x9;&lt;/span&gt;INT&lt;span style=&quot;white-space: pre;&quot;&gt;&#x9;&lt;/span&gt;&lt;span style=&quot;white-space: pre;&quot;&gt;&#x9;&lt;/span&gt;&amp;lt;fk&amp;gt;&lt;/u&gt;&lt;/div&gt;&lt;div&gt;&lt;br&gt;&lt;/div&gt;&lt;/div&gt;&lt;div&gt;specialisation&amp;nbsp;&lt;span style=&quot;white-space: pre;&quot;&gt;&#x9;&lt;/span&gt;VARCHAR(30)&lt;br&gt;&lt;/div&gt;" style="text;strokeColor=none;fillColor=none;align=left;verticalAlign=top;spacingLeft=4;spacingRight=4;overflow=hidden;rotatable=0;points=[[0,0.5],[1,0.5]];portConstraint=eastwest;whiteSpace=wrap;html=1;" parent="SpktXiOs0V0HbwqX7Kb5-7" vertex="1">
          <mxGeometry y="26" width="195" height="94" as="geometry" />
        </mxCell>
        <mxCell id="SpktXiOs0V0HbwqX7Kb5-11" style="edgeStyle=orthogonalEdgeStyle;rounded=0;orthogonalLoop=1;jettySize=auto;html=1;entryX=0.488;entryY=1.022;entryDx=0;entryDy=0;entryPerimeter=0;" parent="1" edge="1">
          <mxGeometry relative="1" as="geometry">
            <mxPoint x="397.49000000000035" y="512.0020000000001" as="targetPoint" />
            <Array as="points" />
            <mxPoint x="397" y="540" as="sourcePoint" />
          </mxGeometry>
        </mxCell>
        <mxCell id="SpktXiOs0V0HbwqX7Kb5-17" value="Chercheur" style="swimlane;fontStyle=0;childLayout=stackLayout;horizontal=1;startSize=26;fillColor=none;horizontalStack=0;resizeParent=1;resizeParentMax=0;resizeLast=0;collapsible=1;marginBottom=0;whiteSpace=wrap;html=1;" parent="1" vertex="1">
          <mxGeometry x="700" y="142" width="200" height="80" as="geometry" />
        </mxCell>
        <mxCell id="SpktXiOs0V0HbwqX7Kb5-18" value="&lt;u&gt;id_chercheur&lt;span style=&quot;white-space: pre;&quot;&gt;&#x9;&lt;span style=&quot;white-space: pre;&quot;&gt;&#x9;&lt;/span&gt;&lt;/span&gt;INT&lt;span style=&quot;white-space: pre;&quot;&gt;&#x9;&lt;/span&gt;&lt;span style=&quot;white-space: pre;&quot;&gt;&#x9;&lt;/span&gt;&amp;lt;pk&amp;gt;&lt;/u&gt;&lt;div&gt;&lt;u&gt;&lt;br&gt;&lt;/u&gt;&lt;/div&gt;&lt;div&gt;&lt;u style=&quot;background-color: initial;&quot;&gt;id_employe&lt;/u&gt;&lt;u&gt;&lt;span style=&quot;white-space: pre;&quot;&gt;&#x9;&lt;/span&gt;&lt;span style=&quot;white-space: pre;&quot;&gt;&#x9;&lt;/span&gt;INT&lt;span style=&quot;white-space: pre;&quot;&gt;&#x9;&lt;/span&gt;&lt;span style=&quot;white-space: pre;&quot;&gt;&#x9;&lt;/span&gt;&amp;lt;fk&amp;gt;&lt;/u&gt;&lt;u&gt;&lt;br&gt;&lt;/u&gt;&lt;/div&gt;&lt;div&gt;&lt;u&gt;&lt;br&gt;&lt;/u&gt;&lt;/div&gt;" style="text;strokeColor=none;fillColor=none;align=left;verticalAlign=top;spacingLeft=4;spacingRight=4;overflow=hidden;rotatable=0;points=[[0,0.5],[1,0.5]];portConstraint=eastwest;whiteSpace=wrap;html=1;" parent="SpktXiOs0V0HbwqX7Kb5-17" vertex="1">
          <mxGeometry y="26" width="200" height="54" as="geometry" />
        </mxCell>
        <mxCell id="nGqbty3hTxU6O8-Om40M-38" style="edgeStyle=orthogonalEdgeStyle;rounded=0;orthogonalLoop=1;jettySize=auto;html=1;entryX=0.5;entryY=0;entryDx=0;entryDy=0;endArrow=none;endFill=0;" parent="1" source="SpktXiOs0V0HbwqX7Kb5-21" target="nGqbty3hTxU6O8-Om40M-35" edge="1">
          <mxGeometry relative="1" as="geometry" />
        </mxCell>
        <mxCell id="SpktXiOs0V0HbwqX7Kb5-21" value="Prestaires de soins de sante" style="swimlane;fontStyle=0;childLayout=stackLayout;horizontal=1;startSize=26;fillColor=none;horizontalStack=0;resizeParent=1;resizeParentMax=0;resizeLast=0;collapsible=1;marginBottom=0;whiteSpace=wrap;html=1;" parent="1" vertex="1">
          <mxGeometry x="680" y="-98" width="260" height="80" as="geometry" />
        </mxCell>
        <mxCell id="SpktXiOs0V0HbwqX7Kb5-22" value="&lt;u&gt;id_prestaires&lt;span style=&quot;white-space: pre;&quot;&gt;&#x9;&lt;/span&gt;&lt;span style=&quot;white-space: pre;&quot;&gt;&#x9;&lt;/span&gt;INT&lt;span style=&quot;white-space: pre;&quot;&gt;&#x9;&lt;/span&gt;&lt;span style=&quot;white-space: pre;&quot;&gt;&#x9;&lt;/span&gt;&lt;span style=&quot;white-space: pre;&quot;&gt;&#x9;&lt;span style=&quot;white-space: pre;&quot;&gt;&#x9;&lt;/span&gt;&lt;/span&gt;&amp;lt;pk&amp;gt;&lt;/u&gt;&lt;div&gt;&lt;u&gt;&lt;br&gt;&lt;/u&gt;&lt;/div&gt;&lt;div&gt;&lt;u&gt;id_employe&lt;span style=&quot;white-space: pre;&quot;&gt;&#x9;&lt;/span&gt;&lt;span style=&quot;white-space: pre;&quot;&gt;&#x9;&lt;/span&gt;INT&lt;span style=&quot;white-space: pre;&quot;&gt;&#x9;&lt;/span&gt;&lt;span style=&quot;white-space: pre;&quot;&gt;&#x9;&lt;/span&gt;&lt;span style=&quot;white-space: pre;&quot;&gt;&#x9;&lt;/span&gt;&lt;span style=&quot;white-space: pre;&quot;&gt;&#x9;&lt;/span&gt;&amp;lt;fk&amp;gt;&lt;/u&gt;&lt;u&gt;&lt;br&gt;&lt;/u&gt;&lt;/div&gt;&lt;div&gt;&lt;u&gt;&lt;br&gt;&lt;/u&gt;&lt;/div&gt;" style="text;strokeColor=none;fillColor=none;align=left;verticalAlign=top;spacingLeft=4;spacingRight=4;overflow=hidden;rotatable=0;points=[[0,0.5],[1,0.5]];portConstraint=eastwest;whiteSpace=wrap;html=1;" parent="SpktXiOs0V0HbwqX7Kb5-21" vertex="1">
          <mxGeometry y="26" width="260" height="54" as="geometry" />
        </mxCell>
        <mxCell id="nGqbty3hTxU6O8-Om40M-34" style="edgeStyle=orthogonalEdgeStyle;rounded=0;orthogonalLoop=1;jettySize=auto;html=1;endArrow=none;endFill=0;" parent="1" source="SpktXiOs0V0HbwqX7Kb5-25" target="nGqbty3hTxU6O8-Om40M-31" edge="1">
          <mxGeometry relative="1" as="geometry" />
        </mxCell>
        <mxCell id="SpktXiOs0V0HbwqX7Kb5-25" value="Technicien de laboratoire" style="swimlane;fontStyle=0;childLayout=stackLayout;horizontal=1;startSize=26;fillColor=none;horizontalStack=0;resizeParent=1;resizeParentMax=0;resizeLast=0;collapsible=1;marginBottom=0;whiteSpace=wrap;html=1;" parent="1" vertex="1">
          <mxGeometry x="370" y="-236" width="260" height="90" as="geometry" />
        </mxCell>
        <mxCell id="SpktXiOs0V0HbwqX7Kb5-26" value="&lt;u&gt;id_technicien_labo&amp;nbsp;&lt;span style=&quot;white-space: pre;&quot;&gt;&#x9;&lt;/span&gt;&lt;span style=&quot;white-space: pre;&quot;&gt;&#x9;&lt;/span&gt;INT&amp;nbsp;&lt;span style=&quot;white-space: pre;&quot;&gt;&#x9;&lt;/span&gt;&lt;span style=&quot;white-space: pre;&quot;&gt;&#x9;&lt;span style=&quot;white-space: pre;&quot;&gt;&#x9;&lt;/span&gt;&lt;/span&gt;&amp;lt;pk&amp;gt;&lt;/u&gt;&lt;div&gt;&lt;br&gt;&lt;/div&gt;&lt;div&gt;&lt;u style=&quot;background-color: initial;&quot;&gt;id_employe&lt;/u&gt;&lt;u&gt;&amp;nbsp;&lt;span style=&quot;white-space: pre;&quot;&gt;&#x9;&lt;/span&gt;&lt;span style=&quot;white-space: pre;&quot;&gt;&#x9;&lt;span style=&quot;white-space: pre;&quot;&gt;&#x9;&lt;/span&gt;&lt;/span&gt;INT&lt;span style=&quot;white-space: pre;&quot;&gt;&#x9;&lt;/span&gt;&lt;span style=&quot;white-space: pre;&quot;&gt;&#x9;&lt;/span&gt;&lt;span style=&quot;white-space: pre;&quot;&gt;&#x9;&lt;/span&gt;&amp;lt;fk&amp;gt;&lt;/u&gt;&lt;br&gt;&lt;/div&gt;" style="text;strokeColor=none;fillColor=none;align=left;verticalAlign=top;spacingLeft=4;spacingRight=4;overflow=hidden;rotatable=0;points=[[0,0.5],[1,0.5]];portConstraint=eastwest;whiteSpace=wrap;html=1;" parent="SpktXiOs0V0HbwqX7Kb5-25" vertex="1">
          <mxGeometry y="26" width="260" height="64" as="geometry" />
        </mxCell>
        <mxCell id="SpktXiOs0V0HbwqX7Kb5-29" value="Personnel de sante" style="swimlane;fontStyle=0;childLayout=stackLayout;horizontal=1;startSize=26;fillColor=none;horizontalStack=0;resizeParent=1;resizeParentMax=0;resizeLast=0;collapsible=1;marginBottom=0;whiteSpace=wrap;html=1;" parent="1" vertex="1">
          <mxGeometry x="120" y="-98" width="280" height="90" as="geometry" />
        </mxCell>
        <mxCell id="SpktXiOs0V0HbwqX7Kb5-30" value="&lt;u&gt;id_personnel_sante&lt;span style=&quot;white-space: pre;&quot;&gt;&#x9;&lt;/span&gt;&lt;span style=&quot;white-space: pre;&quot;&gt;&#x9;&lt;/span&gt;INT&amp;nbsp;&lt;span style=&quot;white-space: pre;&quot;&gt;&#x9;&lt;/span&gt;&lt;span style=&quot;white-space: pre;&quot;&gt;&#x9;&lt;/span&gt;&amp;lt;pk&amp;gt;&lt;/u&gt;&lt;div&gt;&lt;br&gt;&lt;/div&gt;&lt;div&gt;&lt;u style=&quot;background-color: initial;&quot;&gt;id_employe&lt;span style=&quot;white-space: pre;&quot;&gt;&#x9;&lt;/span&gt;&lt;span style=&quot;white-space: pre;&quot;&gt;&#x9;&lt;span style=&quot;white-space: pre;&quot;&gt;&#x9;&lt;/span&gt;&lt;/span&gt;&lt;/u&gt;&lt;u&gt;INT&lt;span style=&quot;white-space: pre;&quot;&gt;&#x9;&lt;/span&gt;&lt;span style=&quot;white-space: pre;&quot;&gt;&#x9;&lt;/span&gt;&amp;lt;fk&amp;gt;&lt;/u&gt;&lt;br&gt;&lt;/div&gt;" style="text;strokeColor=none;fillColor=none;align=left;verticalAlign=top;spacingLeft=4;spacingRight=4;overflow=hidden;rotatable=0;points=[[0,0.5],[1,0.5]];portConstraint=eastwest;whiteSpace=wrap;html=1;" parent="SpktXiOs0V0HbwqX7Kb5-29" vertex="1">
          <mxGeometry y="26" width="280" height="64" as="geometry" />
        </mxCell>
        <mxCell id="SpktXiOs0V0HbwqX7Kb5-37" value="Controle technique" style="swimlane;fontStyle=0;childLayout=stackLayout;horizontal=1;startSize=26;fillColor=none;horizontalStack=0;resizeParent=1;resizeParentMax=0;resizeLast=0;collapsible=1;marginBottom=0;whiteSpace=wrap;html=1;" parent="1" vertex="1">
          <mxGeometry x="-130" y="580" width="290" height="140" as="geometry" />
        </mxCell>
        <mxCell id="SpktXiOs0V0HbwqX7Kb5-38" value="&lt;u&gt;id_controle_technique&amp;nbsp;&lt;span style=&quot;white-space: pre;&quot;&gt;&#x9;&lt;/span&gt;&lt;span style=&quot;white-space: pre;&quot;&gt;&#x9;&lt;/span&gt;INT&amp;nbsp;&lt;span style=&quot;white-space: pre;&quot;&gt;&#x9;&lt;/span&gt;&lt;span style=&quot;white-space: pre;&quot;&gt;&#x9;&lt;span style=&quot;white-space: pre;&quot;&gt;&#x9;&lt;/span&gt;&lt;/span&gt;&amp;lt;pk&amp;gt;&lt;/u&gt;&lt;div&gt;&lt;span style=&quot;background-color: initial;&quot;&gt;&lt;br&gt;&lt;/span&gt;&lt;/div&gt;&lt;div&gt;&lt;span style=&quot;background-color: initial;&quot;&gt;&lt;u&gt;id_vaccin&amp;nbsp;&lt;span style=&quot;white-space: pre;&quot;&gt;&#x9;&lt;/span&gt;&lt;span style=&quot;white-space: pre;&quot;&gt;&#x9;&lt;/span&gt;&lt;span style=&quot;white-space: pre;&quot;&gt;&#x9;&lt;/span&gt;&lt;span style=&quot;white-space: pre;&quot;&gt;&#x9;&lt;/span&gt;INT&amp;nbsp;&lt;span style=&quot;white-space: pre;&quot;&gt;&#x9;&lt;/span&gt;&lt;span style=&quot;white-space: pre;&quot;&gt;&#x9;&lt;/span&gt;&lt;span style=&quot;white-space: pre;&quot;&gt;&#x9;&lt;/span&gt;&amp;lt;fk&amp;gt;&lt;/u&gt;&lt;/span&gt;&lt;div&gt;&lt;br&gt;&lt;/div&gt;&lt;/div&gt;" style="text;strokeColor=none;fillColor=none;align=left;verticalAlign=top;spacingLeft=4;spacingRight=4;overflow=hidden;rotatable=0;points=[[0,0.5],[1,0.5]];portConstraint=eastwest;whiteSpace=wrap;html=1;" parent="SpktXiOs0V0HbwqX7Kb5-37" vertex="1">
          <mxGeometry y="26" width="290" height="54" as="geometry" />
        </mxCell>
        <mxCell id="SpktXiOs0V0HbwqX7Kb5-40" value="&lt;div&gt;nom_resposable&amp;nbsp;&lt;span style=&quot;white-space: pre;&quot;&gt;&#x9;&lt;/span&gt;&lt;span style=&quot;white-space: pre;&quot;&gt;&#x9;&lt;/span&gt;&lt;span style=&quot;white-space: pre;&quot;&gt;&#x9;&lt;/span&gt;VARCHAR(50)&lt;/div&gt;&lt;div&gt;&lt;br&gt;&lt;/div&gt;&lt;div&gt;id_rapport&lt;span style=&quot;white-space: pre;&quot;&gt;&#x9;&lt;/span&gt;&lt;span style=&quot;white-space: pre;&quot;&gt;&#x9;&lt;/span&gt;&lt;span style=&quot;white-space: pre;&quot;&gt;&#x9;&lt;/span&gt;&lt;span style=&quot;white-space: pre;&quot;&gt;&#x9;&lt;/span&gt;INT&lt;span style=&quot;white-space: pre;&quot;&gt;&#x9;&lt;/span&gt;&lt;span style=&quot;white-space: pre;&quot;&gt;&#x9;&lt;/span&gt;&lt;span style=&quot;white-space: pre;&quot;&gt;&#x9;&lt;/span&gt;&amp;lt;fk&amp;gt;&lt;span style=&quot;white-space: pre;&quot;&gt;&#x9;&lt;/span&gt;&lt;span style=&quot;white-space: pre;&quot;&gt;&#x9;&lt;/span&gt;&lt;span style=&quot;white-space: pre;&quot;&gt;&#x9;&lt;/span&gt;&lt;span style=&quot;white-space: pre;&quot;&gt;&#x9;&lt;/span&gt;&lt;/div&gt;" style="text;strokeColor=none;fillColor=none;align=left;verticalAlign=top;spacingLeft=4;spacingRight=4;overflow=hidden;rotatable=0;points=[[0,0.5],[1,0.5]];portConstraint=eastwest;whiteSpace=wrap;html=1;" parent="SpktXiOs0V0HbwqX7Kb5-37" vertex="1">
          <mxGeometry y="80" width="290" height="60" as="geometry" />
        </mxCell>
        <mxCell id="SpktXiOs0V0HbwqX7Kb5-49" value="Batiment" style="swimlane;fontStyle=0;childLayout=stackLayout;horizontal=1;startSize=26;fillColor=none;horizontalStack=0;resizeParent=1;resizeParentMax=0;resizeLast=0;collapsible=1;marginBottom=0;whiteSpace=wrap;html=1;" parent="1" vertex="1">
          <mxGeometry x="1150" y="1052" width="240" height="76" as="geometry" />
        </mxCell>
        <mxCell id="SpktXiOs0V0HbwqX7Kb5-50" value="&lt;u&gt;id_batiment&lt;span style=&quot;white-space: pre;&quot;&gt;&#x9;&lt;/span&gt;INT&amp;nbsp;&lt;span style=&quot;white-space: pre;&quot;&gt;&#x9;&lt;/span&gt;&lt;span style=&quot;white-space: pre;&quot;&gt;&#x9;&lt;span style=&quot;white-space: pre;&quot;&gt;&#x9;&lt;/span&gt;&lt;span style=&quot;white-space: pre;&quot;&gt;&#x9;&lt;/span&gt;&lt;/span&gt;&amp;lt;pk&amp;gt;&lt;/u&gt;&lt;div&gt;&lt;br&gt;&lt;/div&gt;" style="text;strokeColor=none;fillColor=none;align=left;verticalAlign=top;spacingLeft=4;spacingRight=4;overflow=hidden;rotatable=0;points=[[0,0.5],[1,0.5]];portConstraint=eastwest;whiteSpace=wrap;html=1;" parent="SpktXiOs0V0HbwqX7Kb5-49" vertex="1">
          <mxGeometry y="26" width="240" height="24" as="geometry" />
        </mxCell>
        <mxCell id="SpktXiOs0V0HbwqX7Kb5-51" value="adresse&lt;span style=&quot;white-space: pre;&quot;&gt;&#x9;&lt;/span&gt;&lt;span style=&quot;white-space: pre;&quot;&gt;&#x9;&lt;/span&gt;VARCHAR(30)" style="text;strokeColor=none;fillColor=none;align=left;verticalAlign=top;spacingLeft=4;spacingRight=4;overflow=hidden;rotatable=0;points=[[0,0.5],[1,0.5]];portConstraint=eastwest;whiteSpace=wrap;html=1;" parent="SpktXiOs0V0HbwqX7Kb5-49" vertex="1">
          <mxGeometry y="50" width="240" height="26" as="geometry" />
        </mxCell>
        <mxCell id="nGqbty3hTxU6O8-Om40M-45" style="edgeStyle=orthogonalEdgeStyle;rounded=0;orthogonalLoop=1;jettySize=auto;html=1;entryX=1;entryY=0.5;entryDx=0;entryDy=0;" parent="1" source="SpktXiOs0V0HbwqX7Kb5-53" target="SpktXiOs0V0HbwqX7Kb5-50" edge="1">
          <mxGeometry relative="1" as="geometry" />
        </mxCell>
        <mxCell id="SpktXiOs0V0HbwqX7Kb5-53" value="Machine" style="swimlane;fontStyle=0;childLayout=stackLayout;horizontal=1;startSize=26;fillColor=none;horizontalStack=0;resizeParent=1;resizeParentMax=0;resizeLast=0;collapsible=1;marginBottom=0;whiteSpace=wrap;html=1;" parent="1" vertex="1">
          <mxGeometry x="1580" y="1050" width="190" height="80" as="geometry" />
        </mxCell>
        <mxCell id="SpktXiOs0V0HbwqX7Kb5-54" value="&lt;u&gt;id_machine&lt;span style=&quot;white-space: pre;&quot;&gt;&#x9;&lt;/span&gt;INT&amp;nbsp;&lt;span style=&quot;white-space: pre;&quot;&gt;&#x9;&lt;/span&gt;&lt;span style=&quot;white-space: pre;&quot;&gt;&#x9;&lt;/span&gt;&amp;lt;pk&amp;gt;&lt;/u&gt;&lt;div&gt;&lt;u&gt;&lt;br&gt;&lt;/u&gt;&lt;/div&gt;&lt;div&gt;&lt;u&gt;id_batiment&amp;nbsp;&lt;span style=&quot;white-space: pre;&quot;&gt;&#x9;&lt;/span&gt;INT&amp;nbsp;&lt;span style=&quot;white-space: pre;&quot;&gt;&#x9;&lt;/span&gt;&lt;span style=&quot;white-space: pre;&quot;&gt;&#x9;&lt;/span&gt;&amp;lt;fk&amp;gt;&lt;/u&gt;&lt;/div&gt;" style="text;strokeColor=none;fillColor=none;align=left;verticalAlign=top;spacingLeft=4;spacingRight=4;overflow=hidden;rotatable=0;points=[[0,0.5],[1,0.5]];portConstraint=eastwest;whiteSpace=wrap;html=1;" parent="SpktXiOs0V0HbwqX7Kb5-53" vertex="1">
          <mxGeometry y="26" width="190" height="54" as="geometry" />
        </mxCell>
        <mxCell id="SpktXiOs0V0HbwqX7Kb5-57" value="Fournisseur" style="swimlane;fontStyle=0;childLayout=stackLayout;horizontal=1;startSize=26;fillColor=none;horizontalStack=0;resizeParent=1;resizeParentMax=0;resizeLast=0;collapsible=1;marginBottom=0;whiteSpace=wrap;html=1;" parent="1" vertex="1">
          <mxGeometry x="-470" y="1034" width="240" height="110" as="geometry" />
        </mxCell>
        <mxCell id="SpktXiOs0V0HbwqX7Kb5-58" value="&lt;u&gt;id_fournisseur&lt;span style=&quot;white-space: pre;&quot;&gt;&#x9;&lt;/span&gt;&lt;span style=&quot;white-space: pre;&quot;&gt;&#x9;&lt;/span&gt;INT&amp;nbsp;&lt;span style=&quot;white-space: pre;&quot;&gt;&#x9;&lt;/span&gt;&lt;span style=&quot;white-space: pre;&quot;&gt;&#x9;&lt;span style=&quot;white-space: pre;&quot;&gt;&#x9;&lt;/span&gt; &lt;/span&gt;&amp;nbsp;&amp;lt;pk&amp;gt;&lt;/u&gt;" style="text;strokeColor=none;fillColor=none;align=left;verticalAlign=top;spacingLeft=4;spacingRight=4;overflow=hidden;rotatable=0;points=[[0,0.5],[1,0.5]];portConstraint=eastwest;whiteSpace=wrap;html=1;" parent="SpktXiOs0V0HbwqX7Kb5-57" vertex="1">
          <mxGeometry y="26" width="240" height="26" as="geometry" />
        </mxCell>
        <mxCell id="SpktXiOs0V0HbwqX7Kb5-59" value="nom&lt;span style=&quot;white-space: pre;&quot;&gt;&#x9;&lt;/span&gt;&lt;span style=&quot;white-space: pre;&quot;&gt;&#x9;&lt;/span&gt;&lt;span style=&quot;white-space: pre;&quot;&gt;&#x9;&lt;/span&gt;&lt;span style=&quot;white-space: pre;&quot;&gt;&#x9;&lt;/span&gt;VARCHAR(30)&lt;div&gt;&lt;br&gt;&lt;/div&gt;&lt;div&gt;adresse&lt;span style=&quot;white-space: pre;&quot;&gt;&#x9;&lt;/span&gt;&lt;span style=&quot;white-space: pre;&quot;&gt;&#x9;&lt;/span&gt;&lt;span style=&quot;white-space: pre;&quot;&gt;&#x9;&lt;/span&gt;VARCHAR(30)&lt;br&gt;&lt;/div&gt;" style="text;strokeColor=none;fillColor=none;align=left;verticalAlign=top;spacingLeft=4;spacingRight=4;overflow=hidden;rotatable=0;points=[[0,0.5],[1,0.5]];portConstraint=eastwest;whiteSpace=wrap;html=1;" parent="SpktXiOs0V0HbwqX7Kb5-57" vertex="1">
          <mxGeometry y="52" width="240" height="58" as="geometry" />
        </mxCell>
        <mxCell id="SpktXiOs0V0HbwqX7Kb5-61" value="Commande composant" style="swimlane;fontStyle=0;childLayout=stackLayout;horizontal=1;startSize=26;fillColor=none;horizontalStack=0;resizeParent=1;resizeParentMax=0;resizeLast=0;collapsible=1;marginBottom=0;whiteSpace=wrap;html=1;" parent="1" vertex="1">
          <mxGeometry x="-210" y="806" width="290" height="140" as="geometry" />
        </mxCell>
        <mxCell id="SpktXiOs0V0HbwqX7Kb5-62" value="&lt;u&gt;id_commande_composant&lt;span style=&quot;white-space: pre;&quot;&gt;&#x9;&lt;/span&gt;INT&lt;span style=&quot;white-space: pre;&quot;&gt;&#x9;&lt;/span&gt;&lt;span style=&quot;white-space: pre;&quot;&gt;&#x9;&lt;/span&gt;&amp;lt;pk&amp;gt;&lt;/u&gt;&lt;div&gt;&lt;u&gt;&lt;br&gt;&lt;/u&gt;&lt;/div&gt;&lt;div&gt;&lt;u&gt;id&lt;/u&gt;&lt;u style=&quot;background-color: initial;&quot;&gt;_composant&lt;span style=&quot;white-space: pre;&quot;&gt;&#x9;&lt;/span&gt;&lt;span style=&quot;white-space: pre;&quot;&gt;&#x9;&lt;/span&gt;&lt;span style=&quot;white-space: pre;&quot;&gt;&#x9;&lt;/span&gt;&lt;span style=&quot;white-space: pre;&quot;&gt;&#x9;&lt;/span&gt;INT&lt;span style=&quot;white-space: pre;&quot;&gt;&#x9;&lt;/span&gt;&lt;span style=&quot;white-space: pre;&quot;&gt;&#x9;&lt;/span&gt;&amp;lt;pk, fk1&amp;gt;&lt;/u&gt;&lt;/div&gt;&lt;div&gt;&lt;u style=&quot;background-color: initial;&quot;&gt;&lt;br&gt;&lt;/u&gt;&lt;/div&gt;&lt;div&gt;&lt;u style=&quot;background-color: initial;&quot;&gt;id_fournisseur&lt;span style=&quot;white-space: pre;&quot;&gt;&#x9;&lt;/span&gt;&lt;span style=&quot;white-space: pre;&quot;&gt;&#x9;&lt;/span&gt;&lt;span style=&quot;white-space: pre;&quot;&gt;&#x9;&lt;/span&gt;&lt;span style=&quot;white-space: pre;&quot;&gt;&#x9;&lt;/span&gt;INT&amp;nbsp;&lt;span style=&quot;white-space: pre;&quot;&gt;&#x9;&lt;/span&gt;&lt;span style=&quot;white-space: pre;&quot;&gt;&#x9;&lt;/span&gt;&amp;lt;pk, fk2&amp;lt;&lt;/u&gt;&lt;/div&gt;" style="text;strokeColor=none;fillColor=none;align=left;verticalAlign=top;spacingLeft=4;spacingRight=4;overflow=hidden;rotatable=0;points=[[0,0.5],[1,0.5]];portConstraint=eastwest;whiteSpace=wrap;html=1;" parent="SpktXiOs0V0HbwqX7Kb5-61" vertex="1">
          <mxGeometry y="26" width="290" height="84" as="geometry" />
        </mxCell>
        <mxCell id="SpktXiOs0V0HbwqX7Kb5-63" value="quantite&lt;span style=&quot;white-space: pre;&quot;&gt;&#x9;&lt;/span&gt;&lt;span style=&quot;white-space: pre;&quot;&gt;&#x9;&lt;span style=&quot;white-space: pre;&quot;&gt;&#x9;&lt;/span&gt;&lt;span style=&quot;white-space: pre;&quot;&gt;&#x9;&lt;/span&gt;&lt;span style=&quot;white-space: pre;&quot;&gt;&#x9;&lt;/span&gt;&lt;/span&gt;INT" style="text;strokeColor=none;fillColor=none;align=left;verticalAlign=top;spacingLeft=4;spacingRight=4;overflow=hidden;rotatable=0;points=[[0,0.5],[1,0.5]];portConstraint=eastwest;whiteSpace=wrap;html=1;" parent="SpktXiOs0V0HbwqX7Kb5-61" vertex="1">
          <mxGeometry y="110" width="290" height="30" as="geometry" />
        </mxCell>
        <mxCell id="8PMVEyefa--tEmkuhfMg-3" value="FK_STOCK_COMPOSANT" style="text;html=1;align=center;verticalAlign=middle;whiteSpace=wrap;rounded=0;" parent="1" vertex="1">
          <mxGeometry x="560" y="1082.5" width="160" height="13" as="geometry" />
        </mxCell>
        <mxCell id="nGqbty3hTxU6O8-Om40M-1" value="FK_COMMANDE_COMPOSANT_FOURNISSEUR" style="text;html=1;align=center;verticalAlign=middle;whiteSpace=wrap;rounded=0;" parent="1" vertex="1">
          <mxGeometry x="-240" y="976" width="60" height="30" as="geometry" />
        </mxCell>
        <mxCell id="nGqbty3hTxU6O8-Om40M-2" value="FK_COMMANDE_COMPOSANT_COMPOSANT" style="text;html=1;align=center;verticalAlign=middle;whiteSpace=wrap;rounded=0;" parent="1" vertex="1">
          <mxGeometry x="120" y="986" width="60" height="30" as="geometry" />
        </mxCell>
        <mxCell id="nGqbty3hTxU6O8-Om40M-11" value="" style="endArrow=none;html=1;rounded=0;exitX=0.922;exitY=0.158;exitDx=0;exitDy=0;exitPerimeter=0;" parent="1" source="nGqbty3hTxU6O8-Om40M-1" edge="1">
          <mxGeometry width="50" height="50" relative="1" as="geometry">
            <mxPoint x="-130" y="996" as="sourcePoint" />
            <mxPoint x="-80" y="946" as="targetPoint" />
          </mxGeometry>
        </mxCell>
        <mxCell id="nGqbty3hTxU6O8-Om40M-12" value="" style="endArrow=classic;html=1;rounded=0;entryX=0.449;entryY=-0.113;entryDx=0;entryDy=0;entryPerimeter=0;exitX=-0.075;exitY=0.92;exitDx=0;exitDy=0;exitPerimeter=0;" parent="1" source="nGqbty3hTxU6O8-Om40M-1" edge="1">
          <mxGeometry width="50" height="50" relative="1" as="geometry">
            <mxPoint x="-250" y="1006" as="sourcePoint" />
            <mxPoint x="-332.24000000000024" y="1034" as="targetPoint" />
          </mxGeometry>
        </mxCell>
        <mxCell id="nGqbty3hTxU6O8-Om40M-13" value="" style="endArrow=none;html=1;rounded=0;entryX=0.455;entryY=1.008;entryDx=0;entryDy=0;entryPerimeter=0;" parent="1" target="SpktXiOs0V0HbwqX7Kb5-63" edge="1">
          <mxGeometry width="50" height="50" relative="1" as="geometry">
            <mxPoint x="50" y="996" as="sourcePoint" />
            <mxPoint x="45" y="961" as="targetPoint" />
          </mxGeometry>
        </mxCell>
        <mxCell id="nGqbty3hTxU6O8-Om40M-14" value="" style="endArrow=classic;html=1;rounded=0;entryX=0;entryY=0.5;entryDx=0;entryDy=0;" parent="1" target="VlDvHuUCodRuiSwmcWlM-33" edge="1">
          <mxGeometry width="50" height="50" relative="1" as="geometry">
            <mxPoint x="80" y="1006" as="sourcePoint" />
            <mxPoint x="51.760000000000005" y="1045" as="targetPoint" />
          </mxGeometry>
        </mxCell>
        <mxCell id="nGqbty3hTxU6O8-Om40M-20" style="edgeStyle=orthogonalEdgeStyle;rounded=0;orthogonalLoop=1;jettySize=auto;html=1;entryX=1.012;entryY=0.063;entryDx=0;entryDy=0;entryPerimeter=0;exitX=0.001;exitY=0.518;exitDx=0;exitDy=0;exitPerimeter=0;" parent="1" source="SpktXiOs0V0HbwqX7Kb5-18" edge="1">
          <mxGeometry relative="1" as="geometry">
            <mxPoint x="698" y="196" as="sourcePoint" />
            <mxPoint x="495.00000000000017" y="196.25800000000004" as="targetPoint" />
          </mxGeometry>
        </mxCell>
        <mxCell id="nGqbty3hTxU6O8-Om40M-22" value="FK_CHERCHEUR_EMPLOYE" style="text;html=1;align=center;verticalAlign=middle;whiteSpace=wrap;rounded=0;" parent="1" vertex="1">
          <mxGeometry x="570" y="174" width="60" height="20" as="geometry" />
        </mxCell>
        <mxCell id="nGqbty3hTxU6O8-Om40M-23" value="FK_CLIENT_HUMAIN" style="text;html=1;align=center;verticalAlign=middle;whiteSpace=wrap;rounded=0;" parent="1" vertex="1">
          <mxGeometry x="367.5" y="540" width="60" height="20" as="geometry" />
        </mxCell>
        <mxCell id="nGqbty3hTxU6O8-Om40M-24" value="" style="endArrow=none;html=1;rounded=0;exitX=0.5;exitY=0;exitDx=0;exitDy=0;entryX=0.5;entryY=1;entryDx=0;entryDy=0;" parent="1" source="VlDvHuUCodRuiSwmcWlM-1" target="nGqbty3hTxU6O8-Om40M-23" edge="1">
          <mxGeometry width="50" height="50" relative="1" as="geometry">
            <mxPoint x="370" y="570" as="sourcePoint" />
            <mxPoint x="420" y="520" as="targetPoint" />
          </mxGeometry>
        </mxCell>
        <mxCell id="nGqbty3hTxU6O8-Om40M-28" value="FK_PERSONNEL_DE_SANTE_EMPLOYE" style="text;html=1;align=center;verticalAlign=middle;whiteSpace=wrap;rounded=0;" parent="1" vertex="1">
          <mxGeometry x="240" y="46" width="60" height="30" as="geometry" />
        </mxCell>
        <mxCell id="nGqbty3hTxU6O8-Om40M-29" value="" style="endArrow=none;html=1;rounded=0;entryX=0.509;entryY=1.025;entryDx=0;entryDy=0;entryPerimeter=0;endFill=0;" parent="1" edge="1">
          <mxGeometry width="50" height="50" relative="1" as="geometry">
            <mxPoint x="249.92" y="52.64999999999998" as="sourcePoint" />
            <mxPoint x="250.08000000000007" y="-6.000000000000028" as="targetPoint" />
            <Array as="points">
              <mxPoint x="249.92" y="22.649999999999977" />
            </Array>
          </mxGeometry>
        </mxCell>
        <mxCell id="nGqbty3hTxU6O8-Om40M-30" style="edgeStyle=orthogonalEdgeStyle;rounded=0;orthogonalLoop=1;jettySize=auto;html=1;entryX=0.159;entryY=0.871;entryDx=0;entryDy=0;entryPerimeter=0;endArrow=none;endFill=0;strokeColor=default;startArrow=classic;startFill=1;" parent="1" source="SpktXiOs0V0HbwqX7Kb5-7" target="nGqbty3hTxU6O8-Om40M-28" edge="1">
          <mxGeometry relative="1" as="geometry" />
        </mxCell>
        <mxCell id="nGqbty3hTxU6O8-Om40M-31" value="FK_TECHNICIEN_DE_LABO_EMPLOYE" style="text;html=1;align=center;verticalAlign=middle;whiteSpace=wrap;rounded=0;" parent="1" vertex="1">
          <mxGeometry x="440" y="4" width="60" height="30" as="geometry" />
        </mxCell>
        <mxCell id="nGqbty3hTxU6O8-Om40M-33" style="edgeStyle=orthogonalEdgeStyle;rounded=0;orthogonalLoop=1;jettySize=auto;html=1;entryX=0.872;entryY=-0.006;entryDx=0;entryDy=0;entryPerimeter=0;" parent="1" source="nGqbty3hTxU6O8-Om40M-31" target="SpktXiOs0V0HbwqX7Kb5-7" edge="1">
          <mxGeometry relative="1" as="geometry" />
        </mxCell>
        <mxCell id="nGqbty3hTxU6O8-Om40M-40" style="edgeStyle=orthogonalEdgeStyle;rounded=0;orthogonalLoop=1;jettySize=auto;html=1;entryX=0.998;entryY=0.096;entryDx=0;entryDy=0;entryPerimeter=0;" parent="1" source="nGqbty3hTxU6O8-Om40M-35" target="SpktXiOs0V0HbwqX7Kb5-7" edge="1">
          <mxGeometry relative="1" as="geometry">
            <Array as="points">
              <mxPoint x="650" y="154" />
            </Array>
          </mxGeometry>
        </mxCell>
        <mxCell id="nGqbty3hTxU6O8-Om40M-35" value="FK_PRESTAIRES_SOINS_SANTE_EMPLOYE" style="text;html=1;align=center;verticalAlign=middle;whiteSpace=wrap;rounded=0;" parent="1" vertex="1">
          <mxGeometry x="620" y="76" width="60" height="30" as="geometry" />
        </mxCell>
        <mxCell id="nGqbty3hTxU6O8-Om40M-43" value="FK_STOCK_BATIMENT" style="text;html=1;align=center;verticalAlign=middle;whiteSpace=wrap;rounded=0;" parent="1" vertex="1">
          <mxGeometry x="1020" y="1075" width="60" height="10" as="geometry" />
        </mxCell>
        <mxCell id="nGqbty3hTxU6O8-Om40M-46" value="FK_MACHINE_BATIMENT" style="text;html=1;align=center;verticalAlign=middle;whiteSpace=wrap;rounded=0;" parent="1" vertex="1">
          <mxGeometry x="1450" y="1064" width="60" height="21" as="geometry" />
        </mxCell>
        <mxCell id="04S7YoKThEHBGZ5rhpLG-5" value="Humain" style="swimlane;fontStyle=0;childLayout=stackLayout;horizontal=1;startSize=26;fillColor=none;horizontalStack=0;resizeParent=1;resizeParentMax=0;resizeLast=0;collapsible=1;marginBottom=0;whiteSpace=wrap;html=1;" parent="1" vertex="1">
          <mxGeometry x="300" y="400" width="195" height="102" as="geometry" />
        </mxCell>
        <mxCell id="04S7YoKThEHBGZ5rhpLG-6" value="&lt;u&gt;id_humain&lt;/u&gt;&lt;span style=&quot;text-decoration-line: underline; white-space: pre;&quot;&gt;&#x9;&lt;/span&gt;&lt;u&gt;INT&lt;/u&gt;&lt;span style=&quot;text-decoration-line: underline; white-space: pre;&quot;&gt;&#x9;&lt;/span&gt;&lt;span style=&quot;text-decoration-line: underline; white-space: pre;&quot;&gt;&#x9;&lt;/span&gt;&amp;nbsp; &amp;nbsp; &amp;nbsp; &amp;nbsp;&lt;u&gt;&amp;lt;pk&amp;gt;&lt;/u&gt;&lt;div&gt;&lt;br&gt;&lt;/div&gt;&lt;div&gt;&lt;br&gt;&lt;/div&gt;" style="text;strokeColor=none;fillColor=none;align=left;verticalAlign=top;spacingLeft=4;spacingRight=4;overflow=hidden;rotatable=0;points=[[0,0.5],[1,0.5]];portConstraint=eastwest;whiteSpace=wrap;html=1;" parent="04S7YoKThEHBGZ5rhpLG-5" vertex="1">
          <mxGeometry y="26" width="195" height="24" as="geometry" />
        </mxCell>
        <mxCell id="04S7YoKThEHBGZ5rhpLG-7" value="nom&lt;span style=&quot;white-space: pre;&quot;&gt;&#x9;&lt;/span&gt;&lt;span style=&quot;white-space: pre;&quot;&gt;&#x9;&lt;/span&gt;&lt;span style=&quot;white-space: pre;&quot;&gt;&#x9;VARCHAR(30)&lt;/span&gt;&lt;div&gt;&lt;br&gt;&lt;/div&gt;" style="text;strokeColor=none;fillColor=none;align=left;verticalAlign=top;spacingLeft=4;spacingRight=4;overflow=hidden;rotatable=0;points=[[0,0.5],[1,0.5]];portConstraint=eastwest;whiteSpace=wrap;html=1;" parent="04S7YoKThEHBGZ5rhpLG-5" vertex="1">
          <mxGeometry y="50" width="195" height="26" as="geometry" />
        </mxCell>
        <mxCell id="04S7YoKThEHBGZ5rhpLG-8" value="prenom&amp;nbsp;&lt;span style=&quot;white-space: pre;&quot;&gt;&#x9;&lt;/span&gt;&lt;span style=&quot;white-space: pre;&quot;&gt;&#x9;&lt;/span&gt;VARCHAR(30)" style="text;strokeColor=none;fillColor=none;align=left;verticalAlign=top;spacingLeft=4;spacingRight=4;overflow=hidden;rotatable=0;points=[[0,0.5],[1,0.5]];portConstraint=eastwest;whiteSpace=wrap;html=1;" parent="04S7YoKThEHBGZ5rhpLG-5" vertex="1">
          <mxGeometry y="76" width="195" height="26" as="geometry" />
        </mxCell>
        <mxCell id="dDyFV7KPDBNpfsL2g7ZD-1" value="FK_EMPLOYE_HUMAIN" style="text;html=1;align=center;verticalAlign=middle;whiteSpace=wrap;rounded=0;" parent="1" vertex="1">
          <mxGeometry x="360" y="320" width="60" height="30" as="geometry" />
        </mxCell>
        <mxCell id="dDyFV7KPDBNpfsL2g7ZD-3" style="edgeStyle=orthogonalEdgeStyle;rounded=0;orthogonalLoop=1;jettySize=auto;html=1;entryX=0.465;entryY=-0.034;entryDx=0;entryDy=0;entryPerimeter=0;exitX=0.5;exitY=1;exitDx=0;exitDy=0;" parent="1" source="dDyFV7KPDBNpfsL2g7ZD-1" edge="1">
          <mxGeometry relative="1" as="geometry">
            <mxPoint x="389.8396551724139" y="353.81" as="sourcePoint" />
            <mxPoint x="389.82499999999993" y="400.002" as="targetPoint" />
            <Array as="points">
              <mxPoint x="390" y="379" />
            </Array>
          </mxGeometry>
        </mxCell>
        <mxCell id="dDyFV7KPDBNpfsL2g7ZD-4" value="" style="endArrow=none;html=1;rounded=0;entryX=0.466;entryY=0.998;entryDx=0;entryDy=0;entryPerimeter=0;exitX=0.5;exitY=0;exitDx=0;exitDy=0;" parent="1" source="dDyFV7KPDBNpfsL2g7ZD-1" target="SpktXiOs0V0HbwqX7Kb5-8" edge="1">
          <mxGeometry width="50" height="50" relative="1" as="geometry">
            <mxPoint x="400" y="340" as="sourcePoint" />
            <mxPoint x="450" y="290" as="targetPoint" />
          </mxGeometry>
        </mxCell>
        <mxCell id="XZ_G6GVMaPYYm9yExuBG-1" value="Evaluation post -vaccin" style="swimlane;fontStyle=0;childLayout=stackLayout;horizontal=1;startSize=26;fillColor=none;horizontalStack=0;resizeParent=1;resizeParentMax=0;resizeLast=0;collapsible=1;marginBottom=0;whiteSpace=wrap;html=1;" parent="1" vertex="1">
          <mxGeometry x="1100" y="700" width="215" height="200" as="geometry" />
        </mxCell>
        <mxCell id="XZ_G6GVMaPYYm9yExuBG-2" value="&lt;u&gt;id_eval post&lt;span style=&quot;white-space: pre;&quot;&gt;&#x9;&lt;span style=&quot;white-space: pre;&quot;&gt;&#x9;&lt;/span&gt;&lt;/span&gt;INT&lt;span style=&quot;white-space: pre;&quot;&gt;&#x9;&lt;/span&gt;&lt;span style=&quot;white-space: pre;&quot;&gt;&#x9;&lt;/span&gt;&amp;lt;pk&amp;gt;&lt;/u&gt;" style="text;strokeColor=none;fillColor=none;align=left;verticalAlign=top;spacingLeft=4;spacingRight=4;overflow=hidden;rotatable=0;points=[[0,0.5],[1,0.5]];portConstraint=eastwest;whiteSpace=wrap;html=1;" parent="XZ_G6GVMaPYYm9yExuBG-1" vertex="1">
          <mxGeometry y="26" width="215" height="26" as="geometry" />
        </mxCell>
        <mxCell id="XZ_G6GVMaPYYm9yExuBG-3" value="&lt;u&gt;id_client&lt;span style=&quot;white-space: pre;&quot;&gt;&#x9;&lt;/span&gt;&lt;span style=&quot;white-space: pre;&quot;&gt;&#x9;&lt;span style=&quot;white-space: pre;&quot;&gt;&#x9;&lt;/span&gt;&lt;/span&gt;INT&lt;span style=&quot;white-space: pre;&quot;&gt;&#x9;&lt;/span&gt;&lt;span style=&quot;white-space: pre;&quot;&gt;&#x9;&lt;/span&gt;&amp;lt;fk&amp;gt;&lt;/u&gt;" style="text;strokeColor=none;fillColor=none;align=left;verticalAlign=top;spacingLeft=4;spacingRight=4;overflow=hidden;rotatable=0;points=[[0,0.5],[1,0.5]];portConstraint=eastwest;whiteSpace=wrap;html=1;" parent="XZ_G6GVMaPYYm9yExuBG-1" vertex="1">
          <mxGeometry y="52" width="215" height="26" as="geometry" />
        </mxCell>
        <mxCell id="XZ_G6GVMaPYYm9yExuBG-4" value="&lt;u&gt;id_vaccin&lt;span style=&quot;white-space: pre;&quot;&gt;&#x9;&lt;/span&gt;&lt;span style=&quot;white-space: pre;&quot;&gt;&#x9;&lt;span style=&quot;white-space: pre;&quot;&gt;&#x9;&lt;/span&gt;&lt;/span&gt;INT&amp;nbsp;&lt;span style=&quot;white-space: pre;&quot;&gt;&#x9;&lt;/span&gt;&lt;span style=&quot;white-space: pre;&quot;&gt;&#x9;&lt;/span&gt;&amp;lt;fk&amp;gt;&lt;/u&gt;&lt;div&gt;&lt;br&gt;&lt;/div&gt;&lt;div&gt;niveau_anticorps&amp;nbsp; &lt;span style=&quot;white-space: pre;&quot;&gt;&#x9;&lt;/span&gt;INT&lt;/div&gt;&lt;div&gt;&lt;br&gt;&lt;/div&gt;&lt;div&gt;effets_secondaires&lt;span style=&quot;white-space: pre;&quot;&gt;&#x9;&lt;/span&gt;VARCHAR(50)&lt;/div&gt;&lt;div&gt;&lt;br&gt;&lt;/div&gt;&lt;div&gt;date_evaluation&lt;span style=&quot;white-space: pre;&quot;&gt;&#x9;&lt;/span&gt;DATE&lt;/div&gt;" style="text;strokeColor=none;fillColor=none;align=left;verticalAlign=top;spacingLeft=4;spacingRight=4;overflow=hidden;rotatable=0;points=[[0,0.5],[1,0.5]];portConstraint=eastwest;whiteSpace=wrap;html=1;" parent="XZ_G6GVMaPYYm9yExuBG-1" vertex="1">
          <mxGeometry y="78" width="215" height="122" as="geometry" />
        </mxCell>
        <mxCell id="XZ_G6GVMaPYYm9yExuBG-5" value="FK_VACCIN_CLIENT" style="text;html=1;align=center;verticalAlign=middle;whiteSpace=wrap;rounded=0;" parent="1" vertex="1">
          <mxGeometry x="365" y="720" width="60" height="30" as="geometry" />
        </mxCell>
        <mxCell id="XZ_G6GVMaPYYm9yExuBG-8" value="" style="endArrow=classic;html=1;rounded=0;entryX=0.487;entryY=1.08;entryDx=0;entryDy=0;entryPerimeter=0;" parent="1" edge="1" target="VlDvHuUCodRuiSwmcWlM-4">
          <mxGeometry width="50" height="50" relative="1" as="geometry">
            <mxPoint x="394" y="720" as="sourcePoint" />
            <mxPoint x="397.29" y="710" as="targetPoint" />
          </mxGeometry>
        </mxCell>
        <mxCell id="XZ_G6GVMaPYYm9yExuBG-10" value="&lt;span style=&quot;color: rgb(0, 0, 0); font-family: Helvetica; font-size: 12px; font-style: normal; font-variant-ligatures: normal; font-variant-caps: normal; font-weight: 400; letter-spacing: normal; orphans: 2; text-align: center; text-indent: 0px; text-transform: none; widows: 2; word-spacing: 0px; -webkit-text-stroke-width: 0px; white-space: normal; background-color: rgb(251, 251, 251); text-decoration-thickness: initial; text-decoration-style: initial; text-decoration-color: initial; display: inline !important; float: none;&quot;&gt;FK_EVALUATION_PREVACCIN_CLIENT&lt;/span&gt;" style="text;whiteSpace=wrap;html=1;" parent="1" vertex="1">
          <mxGeometry x="570" y="608" width="200" height="30" as="geometry" />
        </mxCell>
        <mxCell id="XZ_G6GVMaPYYm9yExuBG-12" value="" style="endArrow=classic;html=1;rounded=0;" parent="1" edge="1">
          <mxGeometry width="50" height="50" relative="1" as="geometry">
            <mxPoint x="510" y="905" as="sourcePoint" />
            <mxPoint x="480" y="904.58" as="targetPoint" />
          </mxGeometry>
        </mxCell>
        <mxCell id="XZ_G6GVMaPYYm9yExuBG-14" value="" style="endArrow=classic;html=1;rounded=0;" parent="1" edge="1">
          <mxGeometry width="50" height="50" relative="1" as="geometry">
            <mxPoint x="567.5" y="622.62" as="sourcePoint" />
            <mxPoint x="527.5" y="622.62" as="targetPoint" />
          </mxGeometry>
        </mxCell>
        <mxCell id="W4OSFv1LkFXK7ZfwqSv8-4" style="edgeStyle=orthogonalEdgeStyle;rounded=0;orthogonalLoop=1;jettySize=auto;html=1;entryX=0.998;entryY=0.069;entryDx=0;entryDy=0;entryPerimeter=0;" parent="1" source="VlDvHuUCodRuiSwmcWlM-16" target="VlDvHuUCodRuiSwmcWlM-2" edge="1">
          <mxGeometry relative="1" as="geometry" />
        </mxCell>
        <mxCell id="W4OSFv1LkFXK7ZfwqSv8-5" value="" style="endArrow=none;html=1;rounded=0;endFill=0;" parent="1" edge="1">
          <mxGeometry width="50" height="50" relative="1" as="geometry">
            <mxPoint x="764.52" y="520" as="sourcePoint" />
            <mxPoint x="764.52" y="470" as="targetPoint" />
          </mxGeometry>
        </mxCell>
        <mxCell id="W4OSFv1LkFXK7ZfwqSv8-7" style="edgeStyle=orthogonalEdgeStyle;rounded=0;orthogonalLoop=1;jettySize=auto;html=1;entryX=0;entryY=0.5;entryDx=0;entryDy=0;" parent="1" source="W4OSFv1LkFXK7ZfwqSv8-6" target="VlDvHuUCodRuiSwmcWlM-20" edge="1">
          <mxGeometry relative="1" as="geometry" />
        </mxCell>
        <mxCell id="W4OSFv1LkFXK7ZfwqSv8-6" value="FK_CONTROLE_TECHNIQUE_VACCIN" style="text;html=1;align=center;verticalAlign=middle;whiteSpace=wrap;rounded=0;" parent="1" vertex="1">
          <mxGeometry x="90" y="740" width="60" height="30" as="geometry" />
        </mxCell>
        <mxCell id="W4OSFv1LkFXK7ZfwqSv8-8" value="" style="endArrow=none;html=1;rounded=0;exitX=0.862;exitY=1;exitDx=0;exitDy=0;exitPerimeter=0;endFill=0;" parent="1" source="SpktXiOs0V0HbwqX7Kb5-40" edge="1">
          <mxGeometry width="50" height="50" relative="1" as="geometry">
            <mxPoint x="118.75999999999999" y="689.9999999999999" as="sourcePoint" />
            <mxPoint x="120" y="749.4" as="targetPoint" />
          </mxGeometry>
        </mxCell>
        <mxCell id="W4OSFv1LkFXK7ZfwqSv8-10" value="&lt;div&gt;&lt;i&gt;&quot;enumeration&quot;&lt;/i&gt;&lt;/div&gt;types_maladies" style="swimlane;fontStyle=0;childLayout=stackLayout;horizontal=1;startSize=40;fillColor=none;horizontalStack=0;resizeParent=1;resizeParentMax=0;resizeLast=0;collapsible=1;marginBottom=0;whiteSpace=wrap;html=1;" parent="1" vertex="1">
          <mxGeometry x="-650" y="86" width="290" height="264" as="geometry" />
        </mxCell>
        <mxCell id="W4OSFv1LkFXK7ZfwqSv8-11" value="Immunodéficience combinée sévère (SCID)&lt;br&gt;Syndrome de Guillain-Barré (SGB)&lt;br&gt;Grossesse&lt;br&gt;Maladie Pulmonaire Obstructive Chronique (MPOC)&lt;br&gt;Transplantation d&#39;organe&lt;br&gt;Insuffisance rénale terminale (IRT)&lt;br&gt;Cirrhose (Maladie hépatique avancée)&lt;br&gt;Chimiothérapie ou radiothérapie pour le cancer&lt;br&gt;Maladies auto-immunes (par exemple, lupus, polyarthrite rhumatoïde)&lt;br&gt;Épilepsie (dans certains cas spécifiques)&lt;br&gt;Hémophilie (Trouble de la coagulation sévère)&lt;br&gt;Virus de l&#39;immunodéficience humaine (VIH)&lt;br&gt;Asthme sévère&lt;br&gt;Fibrose kystique&lt;br&gt;&lt;div&gt;&lt;br/&gt;&lt;/div&gt;" style="text;strokeColor=none;fillColor=none;align=left;verticalAlign=top;spacingLeft=4;spacingRight=4;overflow=hidden;rotatable=0;points=[[0,0.5],[1,0.5]];portConstraint=eastwest;whiteSpace=wrap;html=1;" parent="W4OSFv1LkFXK7ZfwqSv8-10" vertex="1">
          <mxGeometry y="40" width="290" height="224" as="geometry" />
        </mxCell>
        <mxCell id="W4OSFv1LkFXK7ZfwqSv8-14" value="&lt;div&gt;&lt;i&gt;&quot;enumeration&quot;&lt;/i&gt;&lt;/div&gt;types_allergies" style="swimlane;fontStyle=0;childLayout=stackLayout;horizontal=1;startSize=32;fillColor=none;horizontalStack=0;resizeParent=1;resizeParentMax=0;resizeLast=0;collapsible=1;marginBottom=0;whiteSpace=wrap;html=1;" parent="1" vertex="1">
          <mxGeometry x="-650" y="404" width="290" height="306" as="geometry" />
        </mxCell>
        <mxCell id="W4OSFv1LkFXK7ZfwqSv8-15" value="&lt;div&gt;&lt;span style=&quot;background-color: initial;&quot;&gt;Œufs&lt;/span&gt;&lt;br&gt;&lt;/div&gt;&lt;div&gt;Arachides&lt;/div&gt;&lt;div&gt;Fruits de mer&lt;/div&gt;&lt;div&gt;Antibiotiques (comme la pénicilline)&lt;/div&gt;&lt;div&gt;Produits laitiers&lt;/div&gt;&lt;div&gt;Noix (telles que les noix de cajou, les noisettes, etc.)&lt;/div&gt;&lt;div&gt;oja&lt;/div&gt;&lt;div&gt;Latex&lt;/div&gt;&lt;div&gt;Médicaments anti-inflammatoires non stéroïdiens (AINS)&lt;/div&gt;&lt;div&gt;Sulfites&lt;/div&gt;&lt;div&gt;Piqûres d&#39;insectes (comme les abeilles ou les guêpes)&lt;/div&gt;&lt;div&gt;Certains médicaments (comme les médicaments contre le rhume ou la grippe)&lt;/div&gt;&lt;div&gt;Produits chimiques (ex. conservateurs ou colorants)&lt;/div&gt;&lt;div&gt;&amp;nbsp;Acariens&lt;/div&gt;&lt;div&gt;Moisissures&lt;/div&gt;" style="text;strokeColor=none;fillColor=none;align=left;verticalAlign=top;spacingLeft=4;spacingRight=4;overflow=hidden;rotatable=0;points=[[0,0.5],[1,0.5]];portConstraint=eastwest;whiteSpace=wrap;html=1;" parent="W4OSFv1LkFXK7ZfwqSv8-14" vertex="1">
          <mxGeometry y="32" width="290" height="274" as="geometry" />
        </mxCell>
        <mxCell id="W4OSFv1LkFXK7ZfwqSv8-18" value="Dossier medical" style="swimlane;fontStyle=0;childLayout=stackLayout;horizontal=1;startSize=26;fillColor=none;horizontalStack=0;resizeParent=1;resizeParentMax=0;resizeLast=0;collapsible=1;marginBottom=0;whiteSpace=wrap;html=1;" parent="1" vertex="1">
          <mxGeometry x="-180" y="228" width="260" height="284" as="geometry" />
        </mxCell>
        <mxCell id="W4OSFv1LkFXK7ZfwqSv8-23" value="&lt;u&gt;id_dossier_medical&lt;span style=&quot;white-space: pre;&quot;&gt;&#x9;&lt;/span&gt;INT&lt;span style=&quot;white-space: pre;&quot;&gt;&#x9;&lt;/span&gt;&lt;span style=&quot;white-space: pre;&quot;&gt;&#x9;&lt;/span&gt;&lt;span style=&quot;white-space: pre;&quot;&gt;&#x9;&lt;/span&gt;&lt;span style=&quot;white-space: pre;&quot;&gt;&#x9;&lt;/span&gt;&amp;lt;pk&amp;gt;&lt;/u&gt;" style="text;strokeColor=none;fillColor=none;align=left;verticalAlign=top;spacingLeft=4;spacingRight=4;overflow=hidden;rotatable=0;points=[[0,0.5],[1,0.5]];portConstraint=eastwest;whiteSpace=wrap;html=1;" parent="W4OSFv1LkFXK7ZfwqSv8-18" vertex="1">
          <mxGeometry y="26" width="260" height="26" as="geometry" />
        </mxCell>
        <mxCell id="W4OSFv1LkFXK7ZfwqSv8-22" value="&lt;u&gt;id_client&lt;span style=&quot;white-space: pre;&quot;&gt;&#x9;&lt;/span&gt;&lt;span style=&quot;white-space: pre;&quot;&gt;&#x9;&lt;/span&gt;&lt;span style=&quot;white-space: pre;&quot;&gt;&#x9;&lt;/span&gt;INT&amp;nbsp;&lt;span style=&quot;white-space: pre;&quot;&gt;&#x9;&lt;/span&gt;&lt;span style=&quot;white-space: pre;&quot;&gt;&#x9;&lt;/span&gt;&lt;span style=&quot;white-space: pre;&quot;&gt;&#x9;&lt;/span&gt;&lt;span style=&quot;white-space: pre;&quot;&gt;&#x9;&lt;/span&gt;&amp;lt;fk&amp;gt;&lt;/u&gt;&lt;div&gt;&lt;u&gt;&lt;br&gt;&lt;/u&gt;&lt;/div&gt;&lt;div&gt;&lt;u&gt;id_genome&lt;span style=&quot;white-space: pre;&quot;&gt;&#x9;&lt;span style=&quot;white-space: pre;&quot;&gt;&#x9;&lt;/span&gt;I&lt;/span&gt;NT&lt;span style=&quot;white-space: pre;&quot;&gt;&#x9;&lt;/span&gt;&lt;span style=&quot;white-space: pre;&quot;&gt;&#x9;&lt;/span&gt;&lt;span style=&quot;white-space: pre;&quot;&gt;&#x9;&lt;/span&gt;&lt;span style=&quot;white-space: pre;&quot;&gt;&#x9;&lt;/span&gt;&amp;lt;fk&amp;gt;&lt;/u&gt;&lt;u&gt;&lt;br&gt;&lt;/u&gt;&lt;/div&gt;" style="text;strokeColor=none;fillColor=none;align=left;verticalAlign=top;spacingLeft=4;spacingRight=4;overflow=hidden;rotatable=0;points=[[0,0.5],[1,0.5]];portConstraint=eastwest;whiteSpace=wrap;html=1;" parent="W4OSFv1LkFXK7ZfwqSv8-18" vertex="1">
          <mxGeometry y="52" width="260" height="58" as="geometry" />
        </mxCell>
        <mxCell id="W4OSFv1LkFXK7ZfwqSv8-19" value="maladies&lt;span style=&quot;white-space: pre;&quot;&gt;&#x9;&lt;span style=&quot;white-space: pre;&quot;&gt;&#x9;&lt;span style=&quot;white-space: pre;&quot;&gt;&#x9;&lt;/span&gt;&lt;/span&gt;types_maladies&lt;/span&gt;" style="text;strokeColor=none;fillColor=none;align=left;verticalAlign=top;spacingLeft=4;spacingRight=4;overflow=hidden;rotatable=0;points=[[0,0.5],[1,0.5]];portConstraint=eastwest;whiteSpace=wrap;html=1;" parent="W4OSFv1LkFXK7ZfwqSv8-18" vertex="1">
          <mxGeometry y="110" width="260" height="26" as="geometry" />
        </mxCell>
        <mxCell id="W4OSFv1LkFXK7ZfwqSv8-20" value="allergies&lt;span style=&quot;white-space: pre;&quot;&gt;&#x9;&lt;/span&gt;&lt;span style=&quot;white-space: pre;&quot;&gt;&#x9;&lt;span style=&quot;white-space: pre;&quot;&gt;&#x9;&lt;/span&gt;&lt;/span&gt;types_allergies" style="text;strokeColor=none;fillColor=none;align=left;verticalAlign=top;spacingLeft=4;spacingRight=4;overflow=hidden;rotatable=0;points=[[0,0.5],[1,0.5]];portConstraint=eastwest;whiteSpace=wrap;html=1;" parent="W4OSFv1LkFXK7ZfwqSv8-18" vertex="1">
          <mxGeometry y="136" width="260" height="26" as="geometry" />
        </mxCell>
        <mxCell id="W4OSFv1LkFXK7ZfwqSv8-21" value="maladies_parent1&lt;span style=&quot;white-space: pre;&quot;&gt;&#x9;&lt;/span&gt;types_maladies&lt;div&gt;&lt;br&gt;&lt;/div&gt;&lt;div&gt;allergies_parent1&lt;span style=&quot;white-space: pre;&quot;&gt;&#x9;&lt;/span&gt;types_allergies&lt;/div&gt;&lt;div&gt;&lt;br&gt;&lt;/div&gt;&lt;div&gt;maladies_parent2&lt;span style=&quot;white-space: pre;&quot;&gt;&#x9;&lt;/span&gt;types_maladies&lt;/div&gt;&lt;div&gt;&lt;br&gt;&lt;/div&gt;&lt;div&gt;allergies_parent2&lt;span style=&quot;white-space: pre;&quot;&gt;&#x9;&lt;/span&gt;types_allergies&lt;/div&gt;" style="text;strokeColor=none;fillColor=none;align=left;verticalAlign=top;spacingLeft=4;spacingRight=4;overflow=hidden;rotatable=0;points=[[0,0.5],[1,0.5]];portConstraint=eastwest;whiteSpace=wrap;html=1;" parent="W4OSFv1LkFXK7ZfwqSv8-18" vertex="1">
          <mxGeometry y="162" width="260" height="122" as="geometry" />
        </mxCell>
        <mxCell id="W4OSFv1LkFXK7ZfwqSv8-28" style="edgeStyle=orthogonalEdgeStyle;rounded=0;orthogonalLoop=1;jettySize=auto;html=1;entryX=1;entryY=0.5;entryDx=0;entryDy=0;endArrow=none;endFill=0;" parent="1" edge="1">
          <mxGeometry relative="1" as="geometry">
            <Array as="points">
              <mxPoint x="925" y="623" />
            </Array>
            <mxPoint x="925" y="710" as="sourcePoint" />
            <mxPoint x="795" y="623" as="targetPoint" />
          </mxGeometry>
        </mxCell>
        <mxCell id="W4OSFv1LkFXK7ZfwqSv8-30" style="edgeStyle=orthogonalEdgeStyle;rounded=0;orthogonalLoop=1;jettySize=auto;html=1;" parent="1" edge="1">
          <mxGeometry relative="1" as="geometry">
            <mxPoint x="730" y="910" as="targetPoint" />
            <mxPoint x="900.0022580645161" y="868" as="sourcePoint" />
            <Array as="points">
              <mxPoint x="900" y="910" />
            </Array>
          </mxGeometry>
        </mxCell>
        <mxCell id="W4OSFv1LkFXK7ZfwqSv8-24" value="Evaluation_pre_vaccin" style="swimlane;fontStyle=0;childLayout=stackLayout;horizontal=1;startSize=26;fillColor=none;horizontalStack=0;resizeParent=1;resizeParentMax=0;resizeLast=0;collapsible=1;marginBottom=0;whiteSpace=wrap;html=1;" parent="1" vertex="1">
          <mxGeometry x="800" y="710" width="180" height="158" as="geometry" />
        </mxCell>
        <mxCell id="W4OSFv1LkFXK7ZfwqSv8-31" value="&lt;u&gt;id_eval_pre&lt;span style=&quot;white-space: pre;&quot;&gt;&#x9;&lt;/span&gt;INT&lt;span style=&quot;white-space: pre;&quot;&gt;&#x9;&lt;/span&gt;&lt;span style=&quot;white-space: pre;&quot;&gt;&#x9;&lt;/span&gt;&amp;lt;pk&amp;gt;&lt;/u&gt;&lt;div&gt;&lt;br&gt;&lt;/div&gt;" style="text;strokeColor=none;fillColor=none;align=left;verticalAlign=top;spacingLeft=4;spacingRight=4;overflow=hidden;rotatable=0;points=[[0,0.5],[1,0.5]];portConstraint=eastwest;whiteSpace=wrap;html=1;" parent="W4OSFv1LkFXK7ZfwqSv8-24" vertex="1">
          <mxGeometry y="26" width="180" height="26" as="geometry" />
        </mxCell>
        <mxCell id="W4OSFv1LkFXK7ZfwqSv8-32" value="&lt;u&gt;id_vaccin&lt;span style=&quot;white-space: pre;&quot;&gt;&#x9;&lt;/span&gt;&lt;span style=&quot;white-space: pre;&quot;&gt;&#x9;&lt;/span&gt;INT&amp;nbsp;&lt;span style=&quot;white-space: pre;&quot;&gt;&#x9;&lt;/span&gt;&lt;span style=&quot;white-space: pre;&quot;&gt;&#x9;&lt;/span&gt;&amp;lt;fk&amp;gt;&lt;/u&gt;" style="text;strokeColor=none;fillColor=none;align=left;verticalAlign=top;spacingLeft=4;spacingRight=4;overflow=hidden;rotatable=0;points=[[0,0.5],[1,0.5]];portConstraint=eastwest;whiteSpace=wrap;html=1;" parent="W4OSFv1LkFXK7ZfwqSv8-24" vertex="1">
          <mxGeometry y="52" width="180" height="26" as="geometry" />
        </mxCell>
        <mxCell id="W4OSFv1LkFXK7ZfwqSv8-25" value="&lt;div&gt;&lt;u&gt;id_client&lt;span style=&quot;white-space: pre;&quot;&gt;&#x9;&lt;/span&gt;&lt;span style=&quot;white-space: pre;&quot;&gt;&#x9;&lt;/span&gt;INT&amp;nbsp;&lt;span style=&quot;white-space: pre;&quot;&gt;&#x9;&lt;/span&gt;&lt;span style=&quot;white-space: pre;&quot;&gt;&#x9;&lt;/span&gt;&amp;lt;fk&amp;gt;&lt;/u&gt;&lt;/div&gt;&lt;div&gt;&lt;br&gt;&lt;/div&gt;resultat&lt;span style=&quot;white-space: pre;&quot;&gt;&#x9;&lt;span style=&quot;white-space: pre;&quot;&gt;&#x9;&lt;/span&gt;&lt;/span&gt;BOOL&lt;div&gt;&lt;br&gt;&lt;/div&gt;" style="text;strokeColor=none;fillColor=none;align=left;verticalAlign=top;spacingLeft=4;spacingRight=4;overflow=hidden;rotatable=0;points=[[0,0.5],[1,0.5]];portConstraint=eastwest;whiteSpace=wrap;html=1;" parent="W4OSFv1LkFXK7ZfwqSv8-24" vertex="1">
          <mxGeometry y="78" width="180" height="54" as="geometry" />
        </mxCell>
        <mxCell id="W4OSFv1LkFXK7ZfwqSv8-26" value="date_eval&lt;span style=&quot;white-space: pre;&quot;&gt;&#x9;&lt;/span&gt;&lt;span style=&quot;white-space: pre;&quot;&gt;&#x9;&lt;/span&gt;DATE" style="text;strokeColor=none;fillColor=none;align=left;verticalAlign=top;spacingLeft=4;spacingRight=4;overflow=hidden;rotatable=0;points=[[0,0.5],[1,0.5]];portConstraint=eastwest;whiteSpace=wrap;html=1;" parent="W4OSFv1LkFXK7ZfwqSv8-24" vertex="1">
          <mxGeometry y="132" width="180" height="26" as="geometry" />
        </mxCell>
        <mxCell id="cpZw-BVJGWxLbaeXAO3j-2" style="edgeStyle=orthogonalEdgeStyle;rounded=0;orthogonalLoop=1;jettySize=auto;html=1;entryX=1.003;entryY=0.269;entryDx=0;entryDy=0;entryPerimeter=0;" parent="1" source="cpZw-BVJGWxLbaeXAO3j-4" target="VlDvHuUCodRuiSwmcWlM-2" edge="1">
          <mxGeometry relative="1" as="geometry" />
        </mxCell>
        <mxCell id="cpZw-BVJGWxLbaeXAO3j-3" style="edgeStyle=orthogonalEdgeStyle;rounded=0;orthogonalLoop=1;jettySize=auto;html=1;entryX=1.007;entryY=0.808;entryDx=0;entryDy=0;entryPerimeter=0;" parent="1" target="VlDvHuUCodRuiSwmcWlM-21" edge="1">
          <mxGeometry relative="1" as="geometry">
            <mxPoint x="960" y="960" as="sourcePoint" />
            <Array as="points" />
          </mxGeometry>
        </mxCell>
        <mxCell id="cpZw-BVJGWxLbaeXAO3j-5" value="" style="edgeStyle=orthogonalEdgeStyle;rounded=0;orthogonalLoop=1;jettySize=auto;html=1;endArrow=none;endFill=0;" parent="1" source="XZ_G6GVMaPYYm9yExuBG-1" edge="1">
          <mxGeometry relative="1" as="geometry">
            <mxPoint x="1208" y="700" as="sourcePoint" />
            <mxPoint x="1180" y="604" as="targetPoint" />
            <Array as="points">
              <mxPoint x="1207" y="610" />
              <mxPoint x="1181" y="610" />
              <mxPoint x="1181" y="604" />
            </Array>
          </mxGeometry>
        </mxCell>
        <mxCell id="cpZw-BVJGWxLbaeXAO3j-4" value="&lt;span style=&quot;color: rgb(0, 0, 0); font-family: Helvetica; font-size: 12px; font-style: normal; font-variant-ligatures: normal; font-variant-caps: normal; font-weight: 400; letter-spacing: normal; orphans: 2; text-align: center; text-indent: 0px; text-transform: none; widows: 2; word-spacing: 0px; -webkit-text-stroke-width: 0px; white-space: normal; background-color: rgb(251, 251, 251); text-decoration-thickness: initial; text-decoration-style: initial; text-decoration-color: initial; display: inline !important; float: none;&quot;&gt;FK_EVALUATION_POSTVACCIN_CLIENT&lt;/span&gt;" style="text;whiteSpace=wrap;html=1;" parent="1" vertex="1">
          <mxGeometry x="950" y="596" width="200" height="30" as="geometry" />
        </mxCell>
        <mxCell id="cpZw-BVJGWxLbaeXAO3j-7" value="" style="edgeStyle=orthogonalEdgeStyle;rounded=0;orthogonalLoop=1;jettySize=auto;html=1;endArrow=none;endFill=0;" parent="1" source="XZ_G6GVMaPYYm9yExuBG-1" edge="1">
          <mxGeometry relative="1" as="geometry">
            <mxPoint x="1208" y="900" as="sourcePoint" />
            <mxPoint x="1200" y="960" as="targetPoint" />
            <Array as="points">
              <mxPoint x="1207" y="960" />
              <mxPoint x="1200" y="960" />
            </Array>
          </mxGeometry>
        </mxCell>
        <mxCell id="XZ_G6GVMaPYYm9yExuBG-9" value="FK_EVALUATION_PRE&lt;span style=&quot;background-color: initial;&quot;&gt;VACCIN_VACCIN&lt;/span&gt;" style="text;html=1;align=center;verticalAlign=middle;whiteSpace=wrap;rounded=0;" parent="1" vertex="1">
          <mxGeometry x="590" y="890" width="60" height="30" as="geometry" />
        </mxCell>
        <mxCell id="cpZw-BVJGWxLbaeXAO3j-8" value="FK_EVALUATION_POST&lt;span style=&quot;background-color: initial;&quot;&gt;VACCIN_VACCIN&lt;/span&gt;" style="text;html=1;align=center;verticalAlign=middle;whiteSpace=wrap;rounded=0;" parent="1" vertex="1">
          <mxGeometry x="1050" y="946" width="60" height="30" as="geometry" />
        </mxCell>
        <mxCell id="mAfwgfV7TO1N2lLfQJXY-1" style="edgeStyle=orthogonalEdgeStyle;rounded=0;orthogonalLoop=1;jettySize=auto;html=1;entryX=-0.002;entryY=0.134;entryDx=0;entryDy=0;entryPerimeter=0;" parent="1" source="mAfwgfV7TO1N2lLfQJXY-2" target="VlDvHuUCodRuiSwmcWlM-1" edge="1">
          <mxGeometry relative="1" as="geometry">
            <Array as="points">
              <mxPoint x="190" y="589" />
            </Array>
          </mxGeometry>
        </mxCell>
        <mxCell id="mAfwgfV7TO1N2lLfQJXY-4" value="" style="edgeStyle=orthogonalEdgeStyle;rounded=0;orthogonalLoop=1;jettySize=auto;html=1;entryX=0.5;entryY=0;entryDx=0;entryDy=0;endArrow=none;endFill=0;" parent="1" source="W4OSFv1LkFXK7ZfwqSv8-18" target="mAfwgfV7TO1N2lLfQJXY-2" edge="1">
          <mxGeometry relative="1" as="geometry">
            <mxPoint x="80" y="410" as="sourcePoint" />
            <mxPoint x="267" y="589" as="targetPoint" />
          </mxGeometry>
        </mxCell>
        <mxCell id="mAfwgfV7TO1N2lLfQJXY-2" value="FK_DOSSIER_MEDICAL_CLIENT&lt;div&gt;&lt;br&gt;&lt;/div&gt;" style="text;html=1;align=center;verticalAlign=middle;whiteSpace=wrap;rounded=0;" parent="1" vertex="1">
          <mxGeometry x="160" y="472" width="60" height="30" as="geometry" />
        </mxCell>
        <mxCell id="mAfwgfV7TO1N2lLfQJXY-6" style="edgeStyle=orthogonalEdgeStyle;rounded=0;orthogonalLoop=1;jettySize=auto;html=1;entryX=0.999;entryY=0.443;entryDx=0;entryDy=0;entryPerimeter=0;dashed=1;" parent="1" source="W4OSFv1LkFXK7ZfwqSv8-20" target="W4OSFv1LkFXK7ZfwqSv8-11" edge="1">
          <mxGeometry relative="1" as="geometry" />
        </mxCell>
        <mxCell id="mAfwgfV7TO1N2lLfQJXY-7" style="edgeStyle=orthogonalEdgeStyle;rounded=0;orthogonalLoop=1;jettySize=auto;html=1;entryX=1;entryY=0.511;entryDx=0;entryDy=0;entryPerimeter=0;dashed=1;" parent="1" source="W4OSFv1LkFXK7ZfwqSv8-21" target="W4OSFv1LkFXK7ZfwqSv8-15" edge="1">
          <mxGeometry relative="1" as="geometry" />
        </mxCell>
      </root>
    </mxGraphModel>
  </diagram>
</mxfile>
